<svg width="16" height="16" viewBox="0 0 16 16" fill="none" xmlns="http://www.w3.org/2000/svg">
<g id="calendar-cancel-svgrepo-com 1" clip-path="url(#clip0_3125_1616)">
<path id="Path 157" d="M13.5 1H13V0.5C13 0.367392 12.9473 0.240215 12.8536 0.146447C12.7598 0.0526784 12.6326 0 12.5 0C12.3674 0 12.2402 0.0526784 12.1464 0.146447C12.0527 0.240215 12 0.367392 12 0.5V1H4V0.5C4 0.367392 3.94732 0.240215 3.85355 0.146447C3.75979 0.0526784 3.63261 0 3.5 0C3.36739 0 3.24021 0.0526784 3.14645 0.146447C3.05268 0.240215 3 0.367392 3 0.5V1H2.5C1.83696 1 1.20107 1.26339 0.732233 1.73223C0.263392 2.20107 0 2.83696 0 3.5V13.5C0 14.163 0.263392 14.7989 0.732233 15.2678C1.20107 15.7366 1.83696 16 2.5 16H13.5C14.163 16 14.7989 15.7366 15.2678 15.2678C15.7366 14.7989 16 14.163 16 13.5V3.5C16 2.83696 15.7366 2.20107 15.2678 1.73223C14.7989 1.26339 14.163 1 13.5 1ZM13.5 2C13.8091 2.00128 14.1103 2.09804 14.3624 2.27704C14.6144 2.45605 14.805 2.70855 14.908 3H13V2H13.5ZM12 2V3H4V2H12ZM2.5 2H3V3H1.092C1.19504 2.70855 1.38561 2.45605 1.63765 2.27704C1.88968 2.09804 2.19087 2.00128 2.5 2ZM13.5 15H2.5C2.10218 15 1.72065 14.842 1.43934 14.5607C1.15804 14.2794 1 13.8978 1 13.5V4H15V13.5C15 13.8978 14.842 14.2794 14.5607 14.5607C14.2794 14.842 13.8978 15 13.5 15ZM10.828 7.378L8.707 9.5L10.828 11.622C10.9191 11.7163 10.9695 11.8426 10.9683 11.9737C10.9672 12.1048 10.9146 12.2302 10.8219 12.3229C10.7292 12.4156 10.6038 12.4682 10.4727 12.4693C10.3416 12.4705 10.2153 12.4201 10.121 12.329L8 10.207L5.879 12.329C5.7847 12.4201 5.6584 12.4705 5.5273 12.4693C5.3962 12.4682 5.27079 12.4156 5.17809 12.3229C5.08539 12.2302 5.0328 12.1048 5.03166 11.9737C5.03052 11.8426 5.08092 11.7163 5.172 11.622L7.293 9.5L5.172 7.378C5.12425 7.33188 5.08615 7.2767 5.05995 7.2157C5.03375 7.1547 5.01995 7.08909 5.01937 7.0227C5.0188 6.95631 5.03145 6.89047 5.05659 6.82902C5.08173 6.76757 5.11886 6.71175 5.1658 6.6648C5.21275 6.61786 5.26857 6.58073 5.33002 6.55559C5.39147 6.53045 5.45731 6.5178 5.5237 6.51837C5.59009 6.51895 5.6557 6.53274 5.7167 6.55895C5.7777 6.58515 5.83288 6.62324 5.879 6.671L8 8.793L10.121 6.671C10.1671 6.62324 10.2223 6.58515 10.2833 6.55895C10.3443 6.53274 10.4099 6.51895 10.4763 6.51837C10.5427 6.5178 10.6085 6.53045 10.67 6.55559C10.7314 6.58073 10.7873 6.61786 10.8342 6.6648C10.8811 6.71175 10.9183 6.76757 10.9434 6.82902C10.9685 6.89047 10.9812 6.95631 10.9806 7.0227C10.98 7.08909 10.9663 7.1547 10.9401 7.2157C10.9138 7.2767 10.8758 7.33188 10.828 7.378Z" fill="#6D747A"/>
</g>
<defs>
<clipPath id="clip0_3125_1616">
<rect width="16" height="16" fill="white"/>
</clipPath>
</defs>
</svg>
