<svg width="32" height="32" viewBox="0 0 32 32" fill="none" xmlns="http://www.w3.org/2000/svg">
<path d="M5.31853 19.5459L3.29188 17.5192C2.46521 16.6926 2.46521 15.3326 3.29188 14.5059L5.31853 12.4792C5.66519 12.1326 5.94519 11.4525 5.94519 10.9725V8.10585C5.94519 6.93251 6.90519 5.97254 8.07853 5.97254H10.9452C11.4252 5.97254 12.1052 5.69258 12.4519 5.34591L14.4785 3.31922C15.3052 2.49255 16.6652 2.49255 17.4919 3.31922L19.5185 5.34591C19.8652 5.69258 20.5452 5.97254 21.0252 5.97254H23.8919C25.0652 5.97254 26.0252 6.93251 26.0252 8.10585V10.9725C26.0252 11.4525 26.3052 12.1326 26.6519 12.4792L28.6785 14.5059C29.5052 15.3326 29.5052 16.6926 28.6785 17.5192L26.6519 19.5459C26.3052 19.8926 26.0252 20.5726 26.0252 21.0526V23.9191C26.0252 25.0924 25.0652 26.0526 23.8919 26.0526H21.0252C20.5452 26.0526 19.8652 26.3326 19.5185 26.6792L17.4919 28.7059C16.6652 29.5326 15.3052 29.5326 14.4785 28.7059L12.4519 26.6792C12.1052 26.3326 11.4252 26.0526 10.9452 26.0526H8.07853C6.90519 26.0526 5.94519 25.0924 5.94519 23.9191V21.0526C5.94519 20.5592 5.66519 19.8792 5.31853 19.5459Z" fill="#0D69D7"/>
<path d="M12 20L20 12" stroke="white" stroke-width="2" stroke-linecap="round" stroke-linejoin="round"/>
<path d="M19.326 19.332H19.338" stroke="white" stroke-width="3" stroke-linecap="round" stroke-linejoin="round"/>
<path d="M12.6594 12.668H12.6713" stroke="white" stroke-width="3" stroke-linecap="round" stroke-linejoin="round"/>
</svg>
