<svg width="24" height="24" viewBox="0 0 24 24" fill="none" xmlns="http://www.w3.org/2000/svg">
<path d="M3.9889 14.6584L2.46891 13.1384C1.84891 12.5184 1.84891 11.4984 2.46891 10.8784L3.9889 9.35844C4.2489 9.09844 4.4589 8.58843 4.4589 8.22843V6.07841C4.4589 5.19841 5.1789 4.47843 6.0589 4.47843H8.2089C8.5689 4.47843 9.0789 4.26846 9.3389 4.00846L10.8589 2.48844C11.4789 1.86844 12.4989 1.86844 13.1189 2.48844L14.6389 4.00846C14.8989 4.26846 15.4089 4.47843 15.7689 4.47843H17.9189C18.7989 4.47843 19.5189 5.19841 19.5189 6.07841V8.22843C19.5189 8.58843 19.7289 9.09844 19.9889 9.35844L21.5089 10.8784C22.1289 11.4984 22.1289 12.5184 21.5089 13.1384L19.9889 14.6584C19.7289 14.9184 19.5189 15.4284 19.5189 15.7884V17.9383C19.5189 18.8183 18.7989 19.5384 17.9189 19.5384H15.7689C15.4089 19.5384 14.8989 19.7484 14.6389 20.0084L13.1189 21.5284C12.4989 22.1484 11.4789 22.1484 10.8589 21.5284L9.3389 20.0084C9.0789 19.7484 8.5689 19.5384 8.2089 19.5384H6.0589C5.1789 19.5384 4.4589 18.8183 4.4589 17.9383V15.7884C4.4589 15.4184 4.2489 14.9084 3.9889 14.6584Z" stroke="#6D747A" stroke-width="2" stroke-linecap="round" stroke-linejoin="round"/>
<path d="M9 15L15 9" stroke="#6D747A" stroke-width="2" stroke-linecap="round" stroke-linejoin="round"/>
<path d="M14.4945 14.5H14.5035" stroke="#6D747A" stroke-width="2" stroke-linecap="round" stroke-linejoin="round"/>
<path d="M9.49451 9.5H9.50349" stroke="#6D747A" stroke-width="2" stroke-linecap="round" stroke-linejoin="round"/>
</svg>
