<svg width="24" height="24" viewBox="0 0 24 24" fill="none" xmlns="http://www.w3.org/2000/svg">
<path d="M20 10C20 13.0981 17.9843 16.1042 15.774 18.4373C14.6894 19.5822 13.6013 20.5195 12.7833 21.1708C12.4789 21.4133 12.213 21.6152 12 21.7726C11.787 21.6152 11.5211 21.4133 11.2167 21.1708C10.3987 20.5195 9.31061 19.5822 8.22595 18.4373C6.01574 16.1042 4 13.0981 4 10C4 7.87827 4.84285 5.84344 6.34315 4.34315C7.84344 2.84285 9.87827 2 12 2C14.1217 2 16.1566 2.84285 17.6569 4.34315C19.1571 5.84344 20 7.87827 20 10Z" stroke="#6D747A" stroke-width="2" stroke-linecap="round" stroke-linejoin="round"/>
<path d="M14 10C14 11.1046 13.1046 12 12 12C10.8954 12 10 11.1046 10 10C10 8.89543 10.8954 8 12 8C13.1046 8 14 8.89543 14 10Z" stroke="#6D747A" stroke-width="2" stroke-linecap="round" stroke-linejoin="round"/>
</svg>
