<svg width="17" height="16" viewBox="0 0 17 16" fill="none" xmlns="http://www.w3.org/2000/svg">
<path d="M13.5 6.66797C13.5 8.59936 12.2343 10.5222 10.774 12.0636C10.0644 12.8126 9.35133 13.427 8.81457 13.8544C8.70085 13.945 8.5954 14.0269 8.5 14.0996C8.4046 14.0269 8.29915 13.945 8.18543 13.8544C7.64867 13.427 6.93561 12.8126 6.22595 12.0636C4.76574 10.5222 3.5 8.59936 3.5 6.66797C3.5 5.34189 4.02678 4.07012 4.96447 3.13243C5.90215 2.19475 7.17392 1.66797 8.5 1.66797C9.82608 1.66797 11.0979 2.19475 12.0355 3.13243C12.9732 4.07012 13.5 5.34189 13.5 6.66797Z" stroke="#0D69D7" stroke-width="2" stroke-linecap="round" stroke-linejoin="round"/>
<path d="M9.5 6.66797C9.5 7.22025 9.05228 7.66797 8.5 7.66797C7.94772 7.66797 7.5 7.22025 7.5 6.66797C7.5 6.11568 7.94772 5.66797 8.5 5.66797C9.05228 5.66797 9.5 6.11568 9.5 6.66797Z" fill="#0D69D7" stroke="#0D69D7" stroke-width="2" stroke-linecap="round" stroke-linejoin="round"/>
</svg>
