<svg width="27" height="26" viewBox="0 0 27 26" fill="none" xmlns="http://www.w3.org/2000/svg">
<g id="user_3_fill 1" clip-path="url(#clip0_3125_9960)">
<g id="&#233;&#161;&#181;&#233;&#157;&#162;-1">
<g id="User">
<g id="user_3_fill">
<path id="&#229;&#189;&#162;&#231;&#138;&#182;" d="M19.9682 16.7381L19.9682 16.7381C20.7562 17.2189 21.3966 17.7671 21.841 18.3295C22.2852 18.8918 22.5372 19.4736 22.5372 20.0192C22.5372 20.5684 22.282 21.02 21.8283 21.3841L21.8282 21.3842C21.3785 21.7452 20.7336 22.0212 19.947 22.2295C18.373 22.6462 16.2045 22.7992 13.8172 22.7992C11.4299 22.7992 9.26127 22.6462 7.68727 22.2295C6.90082 22.0212 6.25583 21.7452 5.80604 21.3842L5.80601 21.3841C5.35239 21.02 5.09717 20.5684 5.09717 20.0192C5.09717 19.4736 5.34921 18.8918 5.79339 18.3295C6.23772 17.7671 6.87817 17.2189 7.66611 16.7381C9.24201 15.7764 11.4164 15.0792 13.8172 15.0792C16.218 15.0792 18.3923 15.7764 19.9682 16.7381ZM13.8172 3.19922C16.2472 3.19922 18.2172 5.16917 18.2172 7.59922C18.2172 10.0293 16.2472 11.9992 13.8172 11.9992C11.3871 11.9992 9.41717 10.0293 9.41717 7.59922C9.41717 5.16917 11.3871 3.19922 13.8172 3.19922Z" stroke="#6D747A" stroke-width="2"/>
</g>
</g>
</g>
</g>
<defs>
<clipPath id="clip0_3125_9960">
<rect width="25.92" height="25.92" fill="white" transform="translate(0.856934 0.0390625)"/>
</clipPath>
</defs>
</svg>
