<svg width="14" height="14" viewBox="0 0 14 14" fill="none" xmlns="http://www.w3.org/2000/svg">
<g id="user_3_fill 1" clip-path="url(#clip0_3160_10727)">
<g id="&#233;&#161;&#181;&#233;&#157;&#162;-1">
<g id="User">
<g id="user_3_fill">
<path id="&#229;&#189;&#162;&#231;&#138;&#182;" d="M9.72391 9.2939L9.7239 9.29389C9.01329 8.86027 8.01607 8.53766 6.90883 8.53766C5.8016 8.53766 4.80434 8.86028 4.09374 9.29389C3.73826 9.51082 3.46693 9.74788 3.28931 9.9727L9.72391 9.2939ZM9.72391 9.2939C10.0794 9.51083 10.3508 9.74791 10.5284 9.97276C10.7101 10.2028 10.7688 10.387 10.7688 10.5077C10.7688 10.5674 10.7557 10.6103 10.7355 10.6484C10.713 10.6905 10.6722 10.7434 10.6015 10.8002L10.6013 10.8003M9.72391 9.2939L10.6013 10.8003M10.6013 10.8003C10.4543 10.9183 10.2082 11.0335 9.84577 11.1294M10.6013 10.8003L9.84577 11.1294M3.21623 10.8002L3.21626 10.8002C3.36334 10.9183 3.6095 11.0335 3.97186 11.1294L3.21623 10.8002ZM3.21623 10.8002C3.14546 10.7434 3.10466 10.6905 3.08221 10.6484M3.21623 10.8002L3.08221 10.6484M9.84577 11.1294C9.12362 11.3207 8.09248 11.3977 6.90883 11.3977M9.84577 11.1294L6.90883 11.3977M6.90883 11.3977C5.72522 11.3977 4.69407 11.3207 3.97192 11.1295L6.90883 11.3977ZM3.08221 10.6484C3.0619 10.6103 3.04883 10.5674 3.04883 10.5077M3.08221 10.6484L3.04883 10.5077M3.04883 10.5077C3.04883 10.387 3.10752 10.2029 3.28925 9.97277L3.04883 10.5077ZM6.90883 2.59766C7.8477 2.59766 8.60883 3.35878 8.60883 4.29766C8.60883 5.23654 7.8477 5.99766 6.90883 5.99766C5.96995 5.99766 5.20883 5.23654 5.20883 4.29766C5.20883 3.35877 5.96995 2.59766 6.90883 2.59766Z" stroke="#6D747A" stroke-width="2"/>
</g>
</g>
</g>
</g>
<defs>
<clipPath id="clip0_3160_10727">
<rect width="12.96" height="12.96" fill="white" transform="translate(0.428711 0.519531)"/>
</clipPath>
</defs>
</svg>
