<svg width="24" height="24" viewBox="0 0 24 24" fill="none" xmlns="http://www.w3.org/2000/svg">
<g id="camera_2_fill (1) 1" clip-path="url(#clip0_2680_64195)">
<g id="&#233;&#161;&#181;&#233;&#157;&#162;-1">
<g id="Media">
<g id="camera_2_fill">
<path id="&#229;&#189;&#162;&#231;&#138;&#182;" d="M14.7929 3C15.141 3 15.4766 3.121 15.7435 3.3397L15.8536 3.43934L17.4142 5H20C21.0544 5 21.9182 5.81588 21.9945 6.85074L22 7V19C22 20.0544 21.1841 20.9182 20.1493 20.9945L20 21H4C2.94564 21 2.08183 20.1841 2.00549 19.1493L2 19V7C2 5.94564 2.81588 5.08183 3.85074 5.00549L4 5H6.58579L8.14645 3.43934C8.39259 3.19319 8.71546 3.04143 9.05885 3.00734L9.20711 3H14.7929ZM12 7.5C9.23858 7.5 7 9.73858 7 12.5C7 15.2614 9.23858 17.5 12 17.5C14.7614 17.5 17 15.2614 17 12.5C17 9.73858 14.7614 7.5 12 7.5ZM12 9.5C13.6569 9.5 15 10.8431 15 12.5C15 14.1569 13.6569 15.5 12 15.5C10.3431 15.5 9 14.1569 9 12.5C9 10.8431 10.3431 9.5 12 9.5Z" fill="#0D69D7"/>
</g>
</g>
</g>
</g>
<defs>
<clipPath id="clip0_2680_64195">
<rect width="24" height="24" fill="white"/>
</clipPath>
</defs>
</svg>
