<svg width="72" height="72" viewBox="0 0 72 72" fill="none" xmlns="http://www.w3.org/2000/svg">
<g id="cancel-file-request-svgrepo-com 1">
<g id="Group">
<g id="Group_2">
<path id="Vector" d="M39.6009 15.7832H46.6624C47.4932 15.7832 48.1855 15.0909 48.1855 14.2601C48.1855 13.8447 48.0471 13.5678 47.7701 13.1524L37.8009 3.32163C37.524 3.04471 37.2471 2.90625 36.8317 2.90625C36.0009 2.90625 35.3086 3.59856 35.3086 4.42933V11.4909C35.3086 13.8447 37.2471 15.7832 39.6009 15.7832Z" fill="#549BFF"/>
<path id="Vector_2" d="M34.062 56.2139C34.062 46.7986 39.8774 38.7678 48.1851 35.5832V24.3678C48.1851 23.1216 47.2159 22.1524 45.9697 22.1524H35.1697C31.5697 22.1524 28.6621 19.2447 28.6621 15.7832V4.98317C28.8005 3.87548 27.8313 2.90625 26.5851 2.90625H9.4159C5.8159 2.90625 2.9082 5.81394 2.9082 9.27548V49.9832C2.9082 53.5832 5.8159 56.3524 9.4159 56.3524H34.062V56.2139Z" fill="#BAD7FF"/>
</g>
<path id="Vector_3" d="M44.0313 47.9062L52.339 56.2139L44.0313 64.5216C43.2005 65.3524 43.2005 66.737 44.0313 67.4293L45.0005 68.3986C45.8313 69.2293 47.2159 69.2293 47.9082 68.3986L56.2159 60.0909L64.5236 68.3986C65.3544 69.2293 66.739 69.2293 67.4313 68.3986L68.4005 67.4293C69.2313 66.5986 69.2313 65.2139 68.4005 64.5216L60.0928 56.2139L68.4005 47.9062C69.2313 47.0755 69.2313 45.6909 68.4005 44.9986L67.4313 44.0293C66.6005 43.1986 65.2159 43.1986 64.5236 44.0293L56.2159 52.337L47.9082 44.0293C47.0774 43.1986 45.6928 43.1986 45.0005 44.0293L44.0313 44.9986C43.2005 45.6909 43.2005 47.0755 44.0313 47.9062Z" fill="#549BFF"/>
</g>
</g>
</svg>
