<svg width="158" height="52" viewBox="0 0 158 52" fill="none" xmlns="http://www.w3.org/2000/svg">
<path d="M45.6869 20.9148C45.545 21.0041 42.1677 22.885 42.1677 27.0554C42.3271 31.8119 46.4296 33.4797 46.5 33.4797C46.4296 33.5691 45.8804 35.7523 44.2541 38.0408C42.9638 40.0127 41.531 42 39.3555 42C37.2861 42 36.5434 40.6863 34.1556 40.6863C31.5914 40.6863 30.8657 42 28.9024 42C26.7269 42 25.1881 39.9062 23.8268 37.9531C22.0587 35.397 20.5556 31.3859 20.5022 27.5349C20.4665 25.4941 20.8563 23.488 21.8459 21.7843C23.2429 19.4052 25.7368 17.7909 28.4604 17.7374C30.5468 17.6668 32.404 19.1752 33.6779 19.1752C34.8984 19.1752 37.18 17.7374 39.7613 17.7374C40.8757 17.7385 43.8473 18.075 45.6869 20.9148ZM33.5014 17.3297C33.1297 15.4659 34.1556 13.6022 35.1106 12.4132C36.3311 10.976 38.2587 10 39.9207 10C40.0268 11.8637 39.3544 13.6916 38.1526 15.0229C37.0739 16.4607 35.2167 17.5426 33.5014 17.3297Z" fill="white"/>
<path d="M57.3203 12.5449H60.1621C62.6699 12.5449 64.1523 14.1094 64.1523 16.7695C64.1523 19.4355 62.6758 21 60.1621 21H57.3203V12.5449ZM58.375 13.4941V20.0508H60.0918C62.0078 20.0508 63.0742 18.8789 63.0742 16.7812C63.0742 14.666 62.0137 13.4941 60.0918 13.4941H58.375ZM67.832 21.1055C66.1445 21.1055 65.0078 19.8926 65.0078 17.9531C65.0078 16.0078 66.1445 14.8008 67.832 14.8008C69.5137 14.8008 70.6504 16.0078 70.6504 17.9531C70.6504 19.8926 69.5137 21.1055 67.832 21.1055ZM67.832 20.209C68.9102 20.209 69.6133 19.3887 69.6133 17.9531C69.6133 16.5176 68.9102 15.6973 67.832 15.6973C66.7539 15.6973 66.0449 16.5176 66.0449 17.9531C66.0449 19.3887 66.7539 20.209 67.832 20.209ZM79.4336 14.9062L77.7344 21H76.6973L75.3203 16.2832H75.2969L73.9258 21H72.8887L71.1836 14.9062H72.1973L73.416 19.8633H73.4395L74.8164 14.9062H75.8008L77.1836 19.8633H77.207L78.4258 14.9062H79.4336ZM80.2715 21V14.9062H81.2324V15.8789H81.2559C81.5957 15.2227 82.2461 14.8008 83.1895 14.8008C84.5254 14.8008 85.2988 15.6621 85.2988 17.0449V21H84.2793V17.2266C84.2793 16.2422 83.8164 15.7031 82.8789 15.7031C81.918 15.7031 81.291 16.3828 81.291 17.4141V21H80.2715ZM86.6523 21V12.5449H87.6719V21H86.6523ZM91.5742 21.1055C89.8867 21.1055 88.75 19.8926 88.75 17.9531C88.75 16.0078 89.8867 14.8008 91.5742 14.8008C93.2559 14.8008 94.3926 16.0078 94.3926 17.9531C94.3926 19.8926 93.2559 21.1055 91.5742 21.1055ZM91.5742 20.209C92.6523 20.209 93.3555 19.3887 93.3555 17.9531C93.3555 16.5176 92.6523 15.6973 91.5742 15.6973C90.4961 15.6973 89.7871 16.5176 89.7871 17.9531C89.7871 19.3887 90.4961 20.209 91.5742 20.209ZM97.4336 20.2383C98.3945 20.2383 99.1328 19.5645 99.1328 18.6855V18.1875L97.5039 18.2871C96.6836 18.3398 96.2148 18.7031 96.2148 19.2773C96.2148 19.8574 96.7012 20.2383 97.4336 20.2383ZM97.2051 21.1055C95.9922 21.1055 95.1777 20.373 95.1777 19.2773C95.1777 18.2344 95.9805 17.5781 97.3867 17.4961L99.1328 17.3965V16.8867C99.1328 16.1426 98.6406 15.6973 97.7969 15.6973C97.0117 15.6973 96.5195 16.0664 96.3906 16.6641H95.4062C95.4766 15.6094 96.3789 14.8008 97.8203 14.8008C99.25 14.8008 100.152 15.5742 100.152 16.7871V21H99.1855V19.9512H99.1621C98.7988 20.6484 98.0254 21.1055 97.2051 21.1055ZM103.756 21.1055C102.203 21.1055 101.148 19.8633 101.148 17.9531C101.148 16.043 102.197 14.8008 103.732 14.8008C104.605 14.8008 105.309 15.2285 105.672 15.8965H105.695V12.5449H106.715V21H105.742V19.9688H105.725C105.332 20.6719 104.635 21.1055 103.756 21.1055ZM103.949 15.6973C102.871 15.6973 102.191 16.5762 102.191 17.9531C102.191 19.3359 102.871 20.209 103.949 20.209C104.998 20.209 105.701 19.3184 105.701 17.9531C105.701 16.5938 104.998 15.6973 103.949 15.6973ZM113.078 21.1055C111.391 21.1055 110.254 19.8926 110.254 17.9531C110.254 16.0078 111.391 14.8008 113.078 14.8008C114.76 14.8008 115.896 16.0078 115.896 17.9531C115.896 19.8926 114.76 21.1055 113.078 21.1055ZM113.078 20.209C114.156 20.209 114.859 19.3887 114.859 17.9531C114.859 16.5176 114.156 15.6973 113.078 15.6973C112 15.6973 111.291 16.5176 111.291 17.9531C111.291 19.3887 112 20.209 113.078 20.209ZM116.928 21V14.9062H117.889V15.8789H117.912C118.252 15.2227 118.902 14.8008 119.846 14.8008C121.182 14.8008 121.955 15.6621 121.955 17.0449V21H120.936V17.2266C120.936 16.2422 120.473 15.7031 119.535 15.7031C118.574 15.7031 117.947 16.3828 117.947 17.4141V21H116.928ZM126.045 13.4355H127.064V14.9062H128.248V15.7441H127.064V19.3652C127.064 19.9219 127.299 20.1738 127.82 20.1738C127.938 20.1738 128.172 20.1562 128.242 20.1445V21C128.119 21.0293 127.838 21.0469 127.598 21.0469C126.479 21.0469 126.045 20.5898 126.045 19.418V15.7441H125.137V14.9062H126.045V13.4355ZM129.391 21V12.5449H130.41V15.8789H130.434C130.773 15.1992 131.441 14.8008 132.367 14.8008C133.703 14.8008 134.512 15.7031 134.512 17.0625V21H133.492V17.25C133.492 16.2832 133.006 15.7031 132.051 15.7031C131.037 15.7031 130.41 16.3945 130.41 17.4492V21H129.391ZM138.25 15.6855C137.295 15.6855 136.627 16.418 136.562 17.4316H139.873C139.85 16.4121 139.211 15.6855 138.25 15.6855ZM139.85 19.2539H140.852C140.676 20.3203 139.645 21.1055 138.314 21.1055C136.568 21.1055 135.508 19.8926 135.508 17.9766C135.508 16.084 136.586 14.8008 138.268 14.8008C139.914 14.8008 140.928 15.9961 140.928 17.8418V18.2285H136.557V18.2871C136.557 19.4531 137.242 20.2207 138.338 20.2207C139.111 20.2207 139.68 19.8281 139.85 19.2539Z" fill="white"/>
<path d="M56.7109 39L60.7422 27.7266H63.0078L67.0391 39H64.9219L63.9688 36.0859H59.7734L58.8203 39H56.7109ZM61.8516 29.7344L60.2812 34.5312H63.4609L61.8984 29.7344H61.8516ZM68.0469 41.7344V30.7188H69.9922V32.1484H70.0312C70.5078 31.1562 71.4141 30.5469 72.6016 30.5469C74.7031 30.5469 76.0312 32.1875 76.0312 34.8594V34.8672C76.0312 37.5234 74.7031 39.1641 72.625 39.1641C71.4453 39.1641 70.5 38.5703 70.0312 37.6016H69.9922V41.7344H68.0469ZM72.0234 37.5234C73.2656 37.5234 74.0469 36.5 74.0469 34.8672V34.8594C74.0469 33.2031 73.2656 32.1875 72.0234 32.1875C70.8203 32.1875 69.9766 33.2344 69.9766 34.8594V34.8672C69.9766 36.4844 70.8203 37.5234 72.0234 37.5234ZM77.2812 41.7344V30.7188H79.2266V32.1484H79.2656C79.7422 31.1562 80.6484 30.5469 81.8359 30.5469C83.9375 30.5469 85.2656 32.1875 85.2656 34.8594V34.8672C85.2656 37.5234 83.9375 39.1641 81.8594 39.1641C80.6797 39.1641 79.7344 38.5703 79.2656 37.6016H79.2266V41.7344H77.2812ZM81.2578 37.5234C82.5 37.5234 83.2812 36.5 83.2812 34.8672V34.8594C83.2812 33.2031 82.5 32.1875 81.2578 32.1875C80.0547 32.1875 79.2109 33.2344 79.2109 34.8594V34.8672C79.2109 36.4844 80.0547 37.5234 81.2578 37.5234ZM93.875 39.1953C91.2891 39.1953 89.5859 37.9766 89.4531 35.9531L89.4453 35.8359H91.375L91.3906 35.9297C91.5391 36.8984 92.5312 37.5 93.9453 37.5C95.3672 37.5 96.2578 36.8672 96.2578 35.8984V35.8906C96.2578 35.0469 95.6719 34.5938 94.2188 34.2891L93.0078 34.0391C90.7891 33.5781 89.6953 32.5469 89.6953 30.8672V30.8594C89.7031 28.875 91.4453 27.5312 93.875 27.5312C96.3359 27.5312 97.9453 28.8281 98.0625 30.7578L98.0703 30.8906H96.1406L96.125 30.7969C95.9922 29.8125 95.125 29.2266 93.8594 29.2266C92.5391 29.2344 91.7188 29.8516 91.7188 30.75V30.7578C91.7188 31.5547 92.3359 32.0234 93.6953 32.3047L94.9141 32.5547C97.2578 33.0391 98.2812 33.9922 98.2812 35.75V35.7578C98.2812 37.8594 96.625 39.1953 93.875 39.1953ZM102.672 39.1641C100.938 39.1641 100.117 38.4609 100.117 36.7578V32.2188H98.9453V30.7188H100.117V28.6172H102.094V30.7188H103.633V32.2188H102.094V36.5938C102.094 37.4062 102.453 37.6641 103.164 37.6641C103.352 37.6641 103.5 37.6406 103.633 37.6328V39.0938C103.406 39.125 103.062 39.1641 102.672 39.1641ZM108.477 39.1641C106.039 39.1641 104.469 37.5391 104.469 34.8594V34.8438C104.469 32.1875 106.062 30.5469 108.469 30.5469C110.883 30.5469 112.484 32.1719 112.484 34.8438V34.8594C112.484 37.5469 110.906 39.1641 108.477 39.1641ZM108.484 37.5938C109.711 37.5938 110.5 36.5938 110.5 34.8594V34.8438C110.5 33.1172 109.703 32.125 108.469 32.125C107.258 32.125 106.453 33.125 106.453 34.8438V34.8594C106.453 36.6016 107.242 37.5938 108.484 37.5938ZM113.734 39V30.7188H115.68V32.1484H115.719C115.977 31.1484 116.664 30.5469 117.617 30.5469C117.859 30.5469 118.086 30.5859 118.234 30.625V32.3828C118.07 32.3203 117.773 32.2734 117.445 32.2734C116.344 32.2734 115.68 32.9688 115.68 34.1953V39H113.734ZM122.562 39.1641C120.078 39.1641 118.578 37.5156 118.578 34.8828V34.875C118.578 32.2656 120.102 30.5469 122.469 30.5469C124.836 30.5469 126.305 32.2109 126.305 34.7109V35.3359H120.508C120.539 36.7891 121.336 37.6484 122.602 37.6484C123.57 37.6484 124.203 37.1328 124.391 36.5781L124.406 36.5234H126.227L126.203 36.6094C125.945 37.8828 124.727 39.1641 122.562 39.1641ZM122.492 32.0703C121.461 32.0703 120.688 32.7656 120.531 34.0391H124.414C124.273 32.7266 123.523 32.0703 122.492 32.0703Z" fill="white"/>
<rect x="0.5" y="0.5" width="157" height="51" rx="3.5" stroke="#6D747A"/>
</svg>
