<svg width="49" height="48" viewBox="0 0 49 48" fill="none" xmlns="http://www.w3.org/2000/svg">
<g id="Frame" clip-path="url(#clip0_4984_4121)">
<g id="&#233;&#161;&#181;&#233;&#157;&#162;-1">
<g id="Brand">
<g id="facebook_fill">
<path id="&#232;&#183;&#175;&#229;&#190;&#132;" d="M27.5 43.7766C37.1226 42.329 44.5 34.026 44.5 24C44.5 12.9543 35.5456 4 24.5 4C13.4543 4 4.5 12.9543 4.5 24C4.5 34.026 11.8775 42.329 21.5 43.7766V30H18.5C16.8431 30 15.5 28.6568 15.5 27C15.5 25.3432 16.8431 24 18.5 24H21.5V20C21.5 16.134 24.634 13 28.5 13H29.5C31.1568 13 32.5 14.3431 32.5 16C32.5 17.6569 31.1568 19 29.5 19H28.5C27.9478 19 27.5 19.4477 27.5 20V24H30.5C32.1568 24 33.5 25.3432 33.5 27C33.5 28.6568 32.1568 30 30.5 30H27.5V43.7766Z" fill="#08080B"/>
</g>
</g>
</g>
</g>
<defs>
<clipPath id="clip0_4984_4121">
<rect width="48" height="48" fill="white" transform="translate(0.5)"/>
</clipPath>
</defs>
</svg>
