<svg width="24" height="24" viewBox="0 0 24 24" fill="none" xmlns="http://www.w3.org/2000/svg">
<rect width="24" height="24" fill="#E5E5E5"/>
<g id="Homepage &#38; Search - Customer side">
<path d="M-1656 -3800C-1656 -3801.1 -1655.1 -3802 -1654 -3802H24296C24297.1 -3802 24298 -3801.1 24298 -3800V5380C24298 5381.1 24297.1 5382 24296 5382H-1654C-1655.1 5382 -1656 5381.1 -1656 5380V-3800Z" fill="#F5F5F5"/>
<g id="Homepage" clip-path="url(#clip0_1_64)">
<rect width="1440" height="6303" transform="translate(-300 -2419)" fill="white"/>
<g id="Frame 2">
<rect width="1440" height="5538" transform="translate(-300 -1654)" fill="white"/>
<g id="App download section_homepage_desktop">
<rect x="-240" y="-143" width="1320" height="624" rx="4" fill="white"/>
<g id="Frame 482417">
<g id="Frame 482454">
<g id="logo-google-svgrepo-com 1">
<path id="Vector" d="M22.1794 10.3819L22.0734 9.93234H12.3028V14.0677H18.1406C17.5345 16.9458 14.722 18.4608 12.4247 18.4608C10.7531 18.4608 8.99109 17.7577 7.82484 16.6275C7.20953 16.0217 6.71974 15.3005 6.38353 14.5051C6.04731 13.7098 5.87126 12.856 5.86547 11.9925C5.86547 10.2506 6.64828 8.50828 7.78734 7.36219C8.92641 6.21609 10.6467 5.57484 12.3572 5.57484C14.3161 5.57484 15.72 6.615 16.245 7.08938L19.1836 4.16625C18.3216 3.40875 15.9534 1.5 12.2625 1.5C9.41484 1.5 6.68437 2.59078 4.68844 4.58016C2.71875 6.53906 1.69922 9.37172 1.69922 12C1.69922 14.6283 2.66391 17.3194 4.57266 19.2938C6.61219 21.3994 9.50063 22.5 12.4748 22.5C15.1809 22.5 17.7459 21.4397 19.5741 19.5159C21.3713 17.6222 22.3008 15.0019 22.3008 12.255C22.3008 11.0986 22.1845 10.4119 22.1794 10.3819Z" fill="black"/>
</g>
</g>
</g>
</g>
</g>
</g>
<path d="M-1654 -3801H24296V-3803H-1654V-3801ZM24297 -3800V5380H24299V-3800H24297ZM24296 5381H-1654V5383H24296V5381ZM-1655 5380V-3800H-1657V5380H-1655ZM-1654 5381C-1654.55 5381 -1655 5380.55 -1655 5380H-1657C-1657 5381.66 -1655.66 5383 -1654 5383V5381ZM24297 5380C24297 5380.55 24296.6 5381 24296 5381V5383C24297.7 5383 24299 5381.66 24299 5380H24297ZM24296 -3801C24296.6 -3801 24297 -3800.55 24297 -3800H24299C24299 -3801.66 24297.7 -3803 24296 -3803V-3801ZM-1654 -3803C-1655.66 -3803 -1657 -3801.66 -1657 -3800H-1655C-1655 -3800.55 -1654.55 -3801 -1654 -3801V-3803Z" fill="black" fill-opacity="0.1"/>
</g>
<defs>
<clipPath id="clip0_1_64">
<rect width="1440" height="6303" fill="white" transform="translate(-300 -2419)"/>
</clipPath>
</defs>
</svg>
