<svg width="49" height="48" viewBox="0 0 49 48" fill="none" xmlns="http://www.w3.org/2000/svg">
<g id="Frame" clip-path="url(#clip0_4984_4145)">
<g id="&#233;&#161;&#181;&#233;&#157;&#162;-1">
<g id="Brand">
<g id="ins_fill">
<path id="&#229;&#189;&#162;&#231;&#138;&#182;" d="M32.5 6C38.0228 6 42.5 10.4772 42.5 16V32C42.5 37.5228 38.0228 42 32.5 42H16.5C10.9772 42 6.5 37.5228 6.5 32V16C6.5 10.4772 10.9772 6 16.5 6H32.5ZM24.5 16C20.0817 16 16.5 19.5817 16.5 24C16.5 28.4182 20.0817 32 24.5 32C28.9182 32 32.5 28.4182 32.5 24C32.5 19.5817 28.9182 16 24.5 16ZM24.5 20C26.7092 20 28.5 21.7908 28.5 24C28.5 26.2092 26.7092 28 24.5 28C22.2908 28 20.5 26.2092 20.5 24C20.5 21.7908 22.2908 20 24.5 20ZM33.5 13C32.3954 13 31.5 13.8954 31.5 15C31.5 16.1046 32.3954 17 33.5 17C34.6046 17 35.5 16.1046 35.5 15C35.5 13.8954 34.6046 13 33.5 13Z" fill="#08080B"/>
</g>
</g>
</g>
</g>
<defs>
<clipPath id="clip0_4984_4145">
<rect width="48" height="48" fill="white" transform="translate(0.5)"/>
</clipPath>
</defs>
</svg>
