<svg width="48" height="48" viewBox="0 0 48 48" fill="none" xmlns="http://www.w3.org/2000/svg">
<g id="Frame" clip-path="url(#clip0_4984_4137)">
<g id="&#233;&#161;&#181;&#233;&#157;&#162;-1">
<g id="Brand">
<g id="linkedin_fill">
<path id="&#229;&#189;&#162;&#231;&#138;&#182;" fill-rule="evenodd" clip-rule="evenodd" d="M36 6C39.3138 6 42 8.6863 42 12V36C42 39.3138 39.3138 42 36 42H12C8.6863 42 6 39.3138 6 36V12C6 8.6863 8.6863 6 12 6H36ZM16 20C14.8954 20 14 20.8954 14 22V32C14 33.1046 14.8954 34 16 34C17.1046 34 18 33.1046 18 32V22C18 20.8954 17.1046 20 16 20ZM22 18C20.8954 18 20 18.8954 20 20V32C20 33.1046 20.8954 34 22 34C23.1046 34 24 33.1046 24 32V24.6796C24.6098 23.991 25.6414 23.1842 26.7866 22.6944C27.4522 22.4096 28.4536 22.2958 29.1502 22.5148C29.4548 22.6106 29.6286 22.7452 29.736 22.8902C29.8402 23.0314 30 23.3414 30 24V32C30 33.1044 30.8954 34 32 34C33.1046 34 34 33.1044 34 32V24C34 22.6584 33.6596 21.4684 32.9516 20.5112C32.2464 19.5581 31.2952 18.9962 30.3498 18.699C28.5464 18.1319 26.5478 18.4459 25.2134 19.0167C24.79 19.1978 24.3726 19.4087 23.9682 19.6426C23.7996 18.7085 22.9826 18 22 18ZM16 14C14.8954 14 14 14.8954 14 16C14 17.1046 14.8954 18 16 18C17.1046 18 18 17.1046 18 16C18 14.8954 17.1046 14 16 14Z" fill="#08080B"/>
</g>
</g>
</g>
</g>
<defs>
<clipPath id="clip0_4984_4137">
<rect width="48" height="48" fill="white"/>
</clipPath>
</defs>
</svg>
