<svg xmlns="http://www.w3.org/2000/svg" width="24" height="24" viewBox="0 0 24 24" fill="none">
  <g clip-path="url(#clip0_3285_947)">
    <path fill-rule="evenodd" clip-rule="evenodd" d="M12 3C16.9706 3 21 7.02944 21 12V18C21 19.6569 19.6569 21 18 21H16.618C15.8985 21 15.2376 20.6138 14.8828 19.9945C13.9472 20.6335 12.916 21 12 21C11.084 21 10.0528 20.6335 9.11722 19.9944C8.76242 20.6138 8.10152 21 7.38197 21H6C4.34315 21 3 19.6569 3 18V12C3 7.02944 7.02944 3 12 3ZM12 4.5C8.13401 4.5 4.5 8.13401 4.5 12V18C4.5 18.5523 5.44772 19.5 6 19.5H6.44048C6.99122 19.5 7.46871 19.119 7.59096 18.582C6.66115 17.4286 6 15.8799 6 14C6 13.2091 6.13344 12.4256 6.37336 11.6879C6.51091 11.265 6.9112 10.9837 7.35569 10.9977C8.86025 11.0449 10.3154 10.3183 11.1824 9.08727C11.3697 8.82129 11.6747 8.66304 12 8.66304C12.3253 8.66304 12.6303 8.8213 12.8176 9.08728C13.6845 10.3184 15.1397 11.0449 16.6443 10.9977C17.0888 10.9838 17.4891 11.2651 17.6267 11.688C17.8666 12.4256 18 13.2091 18 14C18 15.8799 17.3389 17.4286 16.409 18.582C16.5313 19.119 17.0087 19.5 17.5595 19.5H18C18.5523 19.5 19.5 18.5523 19.5 18V12C19.5 8.13401 15.866 4.5 12 4.5ZM12 10.5C10.9684 11.4897 9.0079 12.8615 7.5 13C7.433 13.3407 7.59096 13.6579 7.59096 14C7.59096 15.6183 8.26783 17.1447 9.11722 18C9.99758 18.8865 11.3951 19.5 12 19.5C12.6049 19.5 14.0024 18.8865 14.8828 18C15.7321 17.1447 16.5 15.6183 16.5 14C16.5 13.6579 16.476 13.313 16.409 12.9724C14.9011 12.8338 13.0315 11.4898 12 10.5Z" fill="#08090A"/>
  </g>
  <defs>
    <clipPath id="clip0_3285_947">
      <rect width="24" height="24" fill="white"/>
    </clipPath>
  </defs>
</svg>