<svg width="24" height="24" viewBox="0 0 24 24" fill="none" xmlns="http://www.w3.org/2000/svg">
<circle cx="12" cy="12" r="11" stroke="#939CA3" stroke-width="2"/>
<g clip-path="url(#clip0_5857_20488)">
<path d="M14.7239 14.2939L14.7239 14.2939C14.0133 13.8603 13.0161 13.5377 11.9088 13.5377C10.8016 13.5377 9.80434 13.8603 9.09374 14.2939C8.73826 14.5108 8.46693 14.7479 8.28931 14.9727L14.7239 14.2939ZM14.7239 14.2939C15.0794 14.5108 15.3508 14.7479 15.5284 14.9728C15.7101 15.2028 15.7688 15.387 15.7688 15.5077C15.7688 15.5674 15.7557 15.6103 15.7355 15.6484C15.713 15.6905 15.6722 15.7434 15.6015 15.8002L15.6013 15.8003M14.7239 14.2939L15.6013 15.8003M15.6013 15.8003C15.4543 15.9183 15.2082 16.0335 14.8458 16.1294M15.6013 15.8003L14.8458 16.1294M8.21623 15.8002L8.21626 15.8002C8.36334 15.9183 8.6095 16.0335 8.97186 16.1294L8.21623 15.8002ZM8.21623 15.8002C8.14546 15.7434 8.10466 15.6905 8.08221 15.6484M8.21623 15.8002L8.08221 15.6484M14.8458 16.1294C14.1236 16.3207 13.0925 16.3977 11.9088 16.3977M14.8458 16.1294L11.9088 16.3977M11.9088 16.3977C10.7252 16.3977 9.69407 16.3207 8.97192 16.1295L11.9088 16.3977ZM8.08221 15.6484C8.0619 15.6103 8.04883 15.5674 8.04883 15.5077M8.08221 15.6484L8.04883 15.5077M8.04883 15.5077C8.04883 15.387 8.10752 15.2029 8.28925 14.9728L8.04883 15.5077ZM11.9088 7.59766C12.8477 7.59766 13.6088 8.35878 13.6088 9.29766C13.6088 10.2365 12.8477 10.9977 11.9088 10.9977C10.9699 10.9977 10.2088 10.2365 10.2088 9.29766C10.2088 8.35877 10.9699 7.59766 11.9088 7.59766Z" stroke="#939CA3" stroke-width="2"/>
</g>
<defs>
<clipPath id="clip0_5857_20488">
<rect width="12.96" height="12.96" fill="white" transform="translate(5.42871 5.51953)"/>
</clipPath>
</defs>
</svg>
