<svg width="158" height="52" viewBox="0 0 158 52" fill="none" xmlns="http://www.w3.org/2000/svg">
<path d="M19.5 13.718V38.2805C19.5002 38.3338 19.5161 38.3859 19.5457 38.4302C19.5753 38.4745 19.6174 38.509 19.6666 38.5295C19.7158 38.55 19.7699 38.5555 19.8222 38.5454C19.8745 38.5352 19.9227 38.5098 19.9606 38.4724L32.75 25.9999L19.9606 13.5262C19.9227 13.4887 19.8745 13.4634 19.8222 13.4532C19.7699 13.443 19.7158 13.4486 19.6666 13.469C19.6174 13.4895 19.5753 13.5241 19.5457 13.5684C19.5161 13.6127 19.5002 13.6647 19.5 13.718Z" fill="black"/>
<path d="M38.1125 20.8749L22.0762 12.0399L22.0662 12.0343C21.79 11.8843 21.5275 12.2581 21.7537 12.4756L34.3243 24.4956L38.1125 20.8749Z" fill="black"/>
<path d="M21.7551 39.5244C21.5276 39.7419 21.7901 40.1157 22.0676 39.9657L22.0776 39.96L38.1126 31.125L34.3244 27.5032L21.7551 39.5244Z" fill="black"/>
<path d="M44.5862 24.4374L40.1081 21.9712L35.8975 25.9999L40.1081 30.0268L44.5862 27.5624C45.8043 26.8893 45.8043 25.1106 44.5862 24.4374Z" fill="black"/>
<path d="M57.0518 16.6553V16.2354C57.0518 15.1351 57.3496 14.279 57.9453 13.667C58.541 13.0518 59.2946 12.7441 60.2061 12.7441C61.098 12.7441 61.7881 12.9622 62.2764 13.3984C62.7646 13.8314 63.0348 14.349 63.0869 14.9512V15.0049H61.959L61.9541 14.9561C61.9346 14.6403 61.7799 14.3457 61.4902 14.0723C61.2038 13.7988 60.7725 13.6621 60.1963 13.6621C59.6071 13.6621 59.1253 13.8883 58.751 14.3408C58.3799 14.7933 58.1943 15.4199 58.1943 16.2207V16.6699C58.1943 17.474 58.3815 18.1022 58.7559 18.5547C59.1335 19.0039 59.6624 19.2285 60.3428 19.2285C60.6976 19.2285 61.002 19.1943 61.2559 19.126C61.513 19.0544 61.7588 18.9404 61.9932 18.7842V17.2705H60.2402V16.3818H63.0869V19.1797C62.846 19.4206 62.4928 19.6419 62.0273 19.8438C61.5618 20.0456 61.0003 20.1465 60.3428 20.1465C59.3369 20.1465 58.5361 19.8405 57.9404 19.2285C57.348 18.6133 57.0518 17.7555 57.0518 16.6553ZM64.5613 20V12.8906H69.3123V13.7793H65.6844V15.8887H68.8533V16.7822H65.6844V19.1113H69.3611V20H64.5613ZM70.1129 13.7793V12.8906H75.899V13.7793H73.565V20H72.4469V13.7793H70.1129ZM79.507 20V12.8906H80.6301V20H79.507ZM81.748 13.7793V12.8906H87.5342V13.7793H85.2002V20H84.082V13.7793H81.748ZM90.8541 16.6553V16.2354C90.8541 15.1318 91.1503 14.2741 91.7428 13.6621C92.3385 13.0501 93.1018 12.7441 94.0328 12.7441C94.9671 12.7441 95.732 13.0501 96.3277 13.6621C96.9234 14.2741 97.2213 15.1318 97.2213 16.2354V16.6553C97.2213 17.7588 96.9234 18.6165 96.3277 19.2285C95.732 19.8405 94.9671 20.1465 94.0328 20.1465C93.1018 20.1465 92.3385 19.8405 91.7428 19.2285C91.1503 18.6165 90.8541 17.7588 90.8541 16.6553ZM91.9967 16.6699C91.9967 17.4707 92.1822 18.0973 92.5533 18.5498C92.9244 18.999 93.4192 19.2236 94.0377 19.2236C94.6529 19.2236 95.1461 18.999 95.5172 18.5498C95.8915 18.0973 96.0787 17.4707 96.0787 16.6699V16.2207C96.0787 15.4199 95.8915 14.7949 95.5172 14.3457C95.1461 13.8932 94.6529 13.667 94.0377 13.667C93.4192 13.667 92.9244 13.8932 92.5533 14.3457C92.1822 14.7949 91.9967 15.4199 91.9967 16.2207V16.6699ZM98.7934 20V12.8906H99.9945L103.124 17.7393C103.186 17.8369 103.246 17.9427 103.305 18.0566C103.364 18.1706 103.412 18.2715 103.452 18.3594H103.496C103.489 18.2585 103.482 18.1315 103.476 17.9785C103.473 17.8255 103.471 17.6986 103.471 17.5977V12.8906H104.506V20H103.3L100.161 15.1416C100.095 15.0439 100.037 14.9463 99.9848 14.8486C99.9327 14.751 99.8855 14.6582 99.8432 14.5703H99.8041C99.8074 14.6712 99.8122 14.7819 99.8187 14.9023C99.8253 15.0228 99.8285 15.1335 99.8285 15.2344V20H98.7934Z" fill="#08090A"/>
<path d="M62.98 36.416C63.4653 36.416 63.8867 36.3733 64.244 36.288C64.6067 36.1973 64.9507 36.0747 65.276 35.92V33.816H63.828C63.6893 33.816 63.58 33.7787 63.5 33.704C63.42 33.624 63.38 33.528 63.38 33.416V32.2H67.228V36.88C66.9347 37.0933 66.628 37.28 66.308 37.44C65.9933 37.5947 65.6547 37.7227 65.292 37.824C64.9347 37.9253 64.5507 38 64.14 38.048C63.7293 38.1013 63.2867 38.128 62.812 38.128C61.9693 38.128 61.1933 37.9813 60.484 37.688C59.7747 37.3947 59.1613 36.9867 58.644 36.464C58.1267 35.9413 57.7213 35.3173 57.428 34.592C57.14 33.8667 56.996 33.0747 56.996 32.216C56.996 31.3467 57.1373 30.5493 57.42 29.824C57.7027 29.0987 58.1027 28.4747 58.62 27.952C59.1427 27.4293 59.7747 27.024 60.516 26.736C61.2573 26.448 62.0893 26.304 63.012 26.304C63.956 26.304 64.772 26.4453 65.46 26.728C66.1533 27.0053 66.74 27.368 67.22 27.816L66.596 28.792C66.4733 28.9893 66.3107 29.088 66.108 29.088C65.98 29.088 65.8493 29.0453 65.716 28.96C65.5453 28.8587 65.3693 28.7573 65.188 28.656C65.012 28.5547 64.8147 28.4667 64.596 28.392C64.3827 28.3173 64.14 28.256 63.868 28.208C63.6013 28.16 63.292 28.136 62.94 28.136C62.3693 28.136 61.852 28.232 61.388 28.424C60.9293 28.616 60.5373 28.8907 60.212 29.248C59.8867 29.6053 59.636 30.0347 59.46 30.536C59.284 31.0373 59.196 31.5973 59.196 32.216C59.196 32.8827 59.2893 33.4773 59.476 34C59.6627 34.5173 59.924 34.9547 60.26 35.312C60.596 35.6693 60.996 35.944 61.46 36.136C61.924 36.3227 62.4307 36.416 62.98 36.416ZM72.6225 29.664C73.2358 29.664 73.7905 29.7627 74.2865 29.96C74.7878 30.1573 75.2145 30.4373 75.5665 30.8C75.9185 31.1627 76.1905 31.6053 76.3825 32.128C76.5745 32.6507 76.6705 33.2347 76.6705 33.88C76.6705 34.5307 76.5745 35.1173 76.3825 35.64C76.1905 36.1627 75.9185 36.608 75.5665 36.976C75.2145 37.344 74.7878 37.6267 74.2865 37.824C73.7905 38.0213 73.2358 38.12 72.6225 38.12C72.0092 38.12 71.4518 38.0213 70.9505 37.824C70.4492 37.6267 70.0198 37.344 69.6625 36.976C69.3105 36.608 69.0358 36.1627 68.8385 35.64C68.6465 35.1173 68.5505 34.5307 68.5505 33.88C68.5505 33.2347 68.6465 32.6507 68.8385 32.128C69.0358 31.6053 69.3105 31.1627 69.6625 30.8C70.0198 30.4373 70.4492 30.1573 70.9505 29.96C71.4518 29.7627 72.0092 29.664 72.6225 29.664ZM72.6225 36.6C73.3052 36.6 73.8092 36.3707 74.1345 35.912C74.4652 35.4533 74.6305 34.7813 74.6305 33.896C74.6305 33.0107 74.4652 32.336 74.1345 31.872C73.8092 31.408 73.3052 31.176 72.6225 31.176C71.9292 31.176 71.4172 31.4107 71.0865 31.88C70.7558 32.344 70.5905 33.016 70.5905 33.896C70.5905 34.776 70.7558 35.448 71.0865 35.912C71.4172 36.3707 71.9292 36.6 72.6225 36.6ZM81.7163 29.664C82.3296 29.664 82.8843 29.7627 83.3803 29.96C83.8816 30.1573 84.3083 30.4373 84.6603 30.8C85.0123 31.1627 85.2843 31.6053 85.4763 32.128C85.6683 32.6507 85.7643 33.2347 85.7643 33.88C85.7643 34.5307 85.6683 35.1173 85.4763 35.64C85.2843 36.1627 85.0123 36.608 84.6603 36.976C84.3083 37.344 83.8816 37.6267 83.3803 37.824C82.8843 38.0213 82.3296 38.12 81.7163 38.12C81.1029 38.12 80.5456 38.0213 80.0443 37.824C79.5429 37.6267 79.1136 37.344 78.7563 36.976C78.4043 36.608 78.1296 36.1627 77.9323 35.64C77.7403 35.1173 77.6443 34.5307 77.6443 33.88C77.6443 33.2347 77.7403 32.6507 77.9323 32.128C78.1296 31.6053 78.4043 31.1627 78.7563 30.8C79.1136 30.4373 79.5429 30.1573 80.0443 29.96C80.5456 29.7627 81.1029 29.664 81.7163 29.664ZM81.7163 36.6C82.3989 36.6 82.9029 36.3707 83.2283 35.912C83.5589 35.4533 83.7243 34.7813 83.7243 33.896C83.7243 33.0107 83.5589 32.336 83.2283 31.872C82.9029 31.408 82.3989 31.176 81.7163 31.176C81.0229 31.176 80.5109 31.4107 80.1803 31.88C79.8496 32.344 79.6843 33.016 79.6843 33.896C79.6843 34.776 79.8496 35.448 80.1803 35.912C80.5109 36.3707 81.0229 36.6 81.7163 36.6ZM90.146 29.648C90.498 29.648 90.8287 29.6853 91.138 29.76C91.4473 29.8293 91.73 29.9333 91.986 30.072H94.346V30.808C94.346 30.9307 94.314 31.0267 94.25 31.096C94.186 31.1653 94.0767 31.2133 93.922 31.24L93.186 31.376C93.2393 31.5147 93.2793 31.6613 93.306 31.816C93.338 31.9707 93.354 32.1333 93.354 32.304C93.354 32.7093 93.2713 33.0773 93.106 33.408C92.946 33.7333 92.722 34.0107 92.434 34.24C92.1513 34.4693 91.8127 34.648 91.418 34.776C91.0287 34.8987 90.6047 34.96 90.146 34.96C89.8367 34.96 89.5353 34.9307 89.242 34.872C88.986 35.0267 88.858 35.2 88.858 35.392C88.858 35.5573 88.9327 35.68 89.082 35.76C89.2367 35.8347 89.4367 35.888 89.682 35.92C89.9327 35.952 90.2153 35.9733 90.53 35.984C90.8447 35.9893 91.1673 36.0053 91.498 36.032C91.8287 36.0587 92.1513 36.1067 92.466 36.176C92.7807 36.24 93.0607 36.344 93.306 36.488C93.5567 36.632 93.7567 36.8293 93.906 37.08C94.0607 37.3253 94.138 37.6427 94.138 38.032C94.138 38.3947 94.0473 38.7467 93.866 39.088C93.69 39.4293 93.4313 39.7333 93.09 40C92.754 40.2667 92.3407 40.48 91.85 40.64C91.3593 40.8053 90.7993 40.888 90.17 40.888C89.546 40.888 89.0047 40.8267 88.546 40.704C88.0873 40.5867 87.706 40.4267 87.402 40.224C87.1033 40.0267 86.8793 39.7973 86.73 39.536C86.5807 39.2747 86.506 39.0027 86.506 38.72C86.506 38.336 86.6233 38.0133 86.858 37.752C87.0927 37.4907 87.418 37.2827 87.834 37.128C87.6313 37.016 87.4687 36.8667 87.346 36.68C87.2233 36.4933 87.162 36.2507 87.162 35.952C87.162 35.8293 87.1833 35.704 87.226 35.576C87.2687 35.4427 87.3327 35.312 87.418 35.184C87.5087 35.056 87.6207 34.936 87.754 34.824C87.8873 34.7067 88.0447 34.6027 88.226 34.512C87.81 34.288 87.482 33.9893 87.242 33.616C87.0073 33.2427 86.89 32.8053 86.89 32.304C86.89 31.8987 86.97 31.5333 87.13 31.208C87.2953 30.8773 87.522 30.5973 87.81 30.368C88.1033 30.1333 88.4473 29.9547 88.842 29.832C89.242 29.7093 89.6767 29.648 90.146 29.648ZM92.314 38.368C92.314 38.208 92.266 38.0773 92.17 37.976C92.074 37.8747 91.9433 37.7973 91.778 37.744C91.6127 37.6853 91.418 37.6427 91.194 37.616C90.9753 37.5893 90.7407 37.5707 90.49 37.56C90.2447 37.544 89.9887 37.5307 89.722 37.52C89.4607 37.504 89.2073 37.48 88.962 37.448C88.738 37.5707 88.5567 37.7173 88.418 37.888C88.2847 38.0533 88.218 38.2453 88.218 38.464C88.218 38.608 88.2527 38.7413 88.322 38.864C88.3967 38.992 88.5113 39.1013 88.666 39.192C88.826 39.2827 89.0313 39.352 89.282 39.4C89.5327 39.4533 89.8393 39.48 90.202 39.48C90.57 39.48 90.8873 39.4507 91.154 39.392C91.4207 39.3387 91.6393 39.2613 91.81 39.16C91.986 39.064 92.114 38.9467 92.194 38.808C92.274 38.6747 92.314 38.528 92.314 38.368ZM90.146 33.696C90.3913 33.696 90.6047 33.664 90.786 33.6C90.9673 33.5307 91.1167 33.4373 91.234 33.32C91.3567 33.2027 91.4473 33.0613 91.506 32.896C91.57 32.7307 91.602 32.5493 91.602 32.352C91.602 31.9467 91.4793 31.6267 91.234 31.392C90.994 31.152 90.6313 31.032 90.146 31.032C89.6607 31.032 89.2953 31.152 89.05 31.392C88.81 31.6267 88.69 31.9467 88.69 32.352C88.69 32.544 88.7193 32.7227 88.778 32.888C88.842 33.0533 88.9327 33.1973 89.05 33.32C89.1727 33.4373 89.3247 33.5307 89.506 33.6C89.6927 33.664 89.906 33.696 90.146 33.696ZM97.6913 26.112V38H95.7153V26.112H97.6913ZM103.323 29.664C103.84 29.664 104.315 29.7467 104.747 29.912C105.184 30.0773 105.56 30.32 105.875 30.64C106.19 30.9547 106.435 31.344 106.611 31.808C106.787 32.2667 106.875 32.792 106.875 33.384C106.875 33.5333 106.867 33.6587 106.851 33.76C106.84 33.856 106.816 33.9333 106.779 33.992C106.747 34.0453 106.702 34.0853 106.643 34.112C106.584 34.1333 106.51 34.144 106.419 34.144H101.347C101.406 34.9867 101.632 35.6053 102.027 36C102.422 36.3947 102.944 36.592 103.595 36.592C103.915 36.592 104.19 36.5547 104.419 36.48C104.654 36.4053 104.856 36.3227 105.027 36.232C105.203 36.1413 105.355 36.0587 105.483 35.984C105.616 35.9093 105.744 35.872 105.867 35.872C105.947 35.872 106.016 35.888 106.075 35.92C106.134 35.952 106.184 35.9973 106.227 36.056L106.803 36.776C106.584 37.032 106.339 37.248 106.067 37.424C105.795 37.5947 105.51 37.7333 105.211 37.84C104.918 37.9413 104.616 38.0133 104.307 38.056C104.003 38.0987 103.707 38.12 103.419 38.12C102.848 38.12 102.318 38.0267 101.827 37.84C101.336 37.648 100.91 37.368 100.547 37C100.184 36.6267 99.899 36.168 99.691 35.624C99.483 35.0747 99.379 34.44 99.379 33.72C99.379 33.16 99.4697 32.6347 99.651 32.144C99.8323 31.648 100.091 31.2187 100.427 30.856C100.768 30.488 101.182 30.1973 101.667 29.984C102.158 29.7707 102.71 29.664 103.323 29.664ZM103.363 31.08C102.787 31.08 102.336 31.2427 102.011 31.568C101.686 31.8933 101.478 32.3547 101.387 32.952H105.099C105.099 32.696 105.064 32.456 104.995 32.232C104.926 32.0027 104.819 31.8027 104.675 31.632C104.531 31.4613 104.35 31.328 104.131 31.232C103.912 31.1307 103.656 31.08 103.363 31.08ZM113.908 33.928V38H111.756V26.432H115.524C116.297 26.432 116.966 26.5227 117.532 26.704C118.097 26.8853 118.564 27.1387 118.932 27.464C119.3 27.7893 119.572 28.1787 119.748 28.632C119.924 29.0853 120.012 29.5813 120.012 30.12C120.012 30.68 119.918 31.1947 119.732 31.664C119.545 32.128 119.265 32.528 118.892 32.864C118.518 33.2 118.052 33.4613 117.492 33.648C116.932 33.8347 116.276 33.928 115.524 33.928H113.908ZM113.908 32.248H115.524C115.918 32.248 116.262 32.2 116.556 32.104C116.849 32.0027 117.092 31.8613 117.284 31.68C117.476 31.4933 117.62 31.2693 117.716 31.008C117.812 30.7413 117.86 30.4453 117.86 30.12C117.86 29.8107 117.812 29.5307 117.716 29.28C117.62 29.0293 117.476 28.816 117.284 28.64C117.092 28.464 116.849 28.3307 116.556 28.24C116.262 28.144 115.918 28.096 115.524 28.096H113.908V32.248ZM123.676 26.112V38H121.7V26.112H123.676ZM132.347 38H131.459C131.273 38 131.126 37.9733 131.019 37.92C130.913 37.8613 130.833 37.7467 130.779 37.576L130.603 36.992C130.395 37.1787 130.19 37.344 129.987 37.488C129.79 37.6267 129.585 37.744 129.371 37.84C129.158 37.936 128.931 38.008 128.691 38.056C128.451 38.104 128.185 38.128 127.891 38.128C127.545 38.128 127.225 38.0827 126.931 37.992C126.638 37.896 126.385 37.7547 126.171 37.568C125.963 37.3813 125.801 37.1493 125.683 36.872C125.566 36.5947 125.507 36.272 125.507 35.904C125.507 35.5947 125.587 35.2907 125.747 34.992C125.913 34.688 126.185 34.416 126.563 34.176C126.942 33.9307 127.446 33.728 128.075 33.568C128.705 33.408 129.486 33.3173 130.419 33.296V32.816C130.419 32.2667 130.302 31.8613 130.067 31.6C129.838 31.3333 129.502 31.2 129.059 31.2C128.739 31.2 128.473 31.2373 128.259 31.312C128.046 31.3867 127.859 31.472 127.699 31.568C127.545 31.6587 127.401 31.7413 127.267 31.816C127.134 31.8907 126.987 31.928 126.827 31.928C126.694 31.928 126.579 31.8933 126.483 31.824C126.387 31.7547 126.31 31.6693 126.251 31.568L125.891 30.936C126.835 30.072 127.974 29.64 129.307 29.64C129.787 29.64 130.214 29.72 130.587 29.88C130.966 30.0347 131.286 30.2533 131.547 30.536C131.809 30.8133 132.006 31.1467 132.139 31.536C132.278 31.9253 132.347 32.352 132.347 32.816V38ZM128.507 36.768C128.71 36.768 128.897 36.7493 129.067 36.712C129.238 36.6747 129.398 36.6187 129.547 36.544C129.702 36.4693 129.849 36.3787 129.987 36.272C130.131 36.16 130.275 36.0293 130.419 35.88V34.496C129.843 34.5227 129.361 34.5733 128.971 34.648C128.587 34.7173 128.278 34.808 128.043 34.92C127.809 35.032 127.641 35.1627 127.539 35.312C127.443 35.4613 127.395 35.624 127.395 35.8C127.395 36.1467 127.497 36.3947 127.699 36.544C127.907 36.6933 128.177 36.768 128.507 36.768ZM136.921 40.256C136.862 40.3947 136.785 40.4987 136.689 40.568C136.598 40.6427 136.457 40.68 136.265 40.68H134.793L136.329 37.392L133.009 29.792H134.737C134.897 29.792 135.02 29.8293 135.105 29.904C135.19 29.9787 135.254 30.064 135.297 30.16L137.049 34.416C137.108 34.5547 137.158 34.6987 137.201 34.848C137.244 34.9973 137.281 35.1467 137.313 35.296C137.356 35.1413 137.401 34.992 137.449 34.848C137.502 34.704 137.558 34.5573 137.617 34.408L139.265 30.16C139.308 30.0533 139.377 29.9653 139.473 29.896C139.574 29.8267 139.686 29.792 139.809 29.792H141.393L136.921 40.256Z" fill="#08090A"/>
<rect x="0.5" y="0.5" width="157" height="51" rx="3.5" stroke="#CED4DA"/>
</svg>
