<svg width="16" height="16" viewBox="0 0 16 16" fill="none" xmlns="http://www.w3.org/2000/svg">
<g id="share_forward_line 1" clip-path="url(#clip0_4982_7644)">
<g id="&#233;&#161;&#181;&#233;&#157;&#162;-1">
<g id="System">
<g id="share_forward_line">
<path id="&#229;&#189;&#162;&#231;&#138;&#182;" d="M6.7429 2.99392C6.79363 2.46383 7.34703 2.02765 7.9049 2.34554C9.06483 3.02499 10.1598 3.79867 11.2182 4.62683C12.5243 5.65818 13.5737 6.63121 14.316 7.4081C14.6385 7.74577 14.608 8.27984 14.2999 8.6023C13.5692 9.36677 12.7823 10.078 11.9704 10.7546C10.678 11.8124 9.34043 12.8378 7.8837 13.66C7.38935 13.9388 6.8543 13.6199 6.7588 13.1259L6.74783 13.0505L6.59616 10.6678C5.38571 10.6933 4.21349 11.1094 3.27595 11.883L3.09957 12.0313C3.0708 12.055 3.04234 12.0781 3.0142 12.1006L2.84919 12.2287C2.82233 12.2488 2.79579 12.2684 2.76958 12.2873L2.61623 12.3934C2.56644 12.4262 2.51796 12.4564 2.47084 12.4839L2.33352 12.5581C1.68957 12.8759 1.3335 12.5947 1.3335 11.3332C1.3335 8.39708 3.49697 5.78478 6.42128 5.38855L6.59416 5.36781L6.7429 2.99392ZM8.01543 3.97666L7.88776 6.29123C7.8787 6.45468 7.75236 6.58739 7.58956 6.6044L6.68196 6.69924C4.63861 6.94304 3.01772 8.54057 2.71696 10.6286C3.71014 9.89689 4.89005 9.45166 6.14042 9.35371L6.40454 9.33824L7.54083 9.31424C7.72056 9.3105 7.8709 9.44984 7.8807 9.6293L8.01196 12.0263C9.08076 11.3456 10.0996 10.5626 11.1213 9.72657C11.7811 9.17651 12.4176 8.60224 13.0262 7.99624L12.8543 7.82611L12.4837 7.47045C11.9013 6.92246 11.2006 6.31192 10.3942 5.67507C9.6171 5.06715 8.82863 4.4966 8.01543 3.97666Z" fill="white"/>
</g>
</g>
</g>
</g>
<defs>
<clipPath id="clip0_4982_7644">
<rect width="16" height="16" fill="white"/>
</clipPath>
</defs>
</svg>
