<svg width="16" height="16" viewBox="0 0 16 16" fill="none" xmlns="http://www.w3.org/2000/svg">
<g id="share_forward_line 1" clip-path="url(#clip0_4974_11509)">
<g id="&#233;&#161;&#181;&#233;&#157;&#162;-1">
<g id="System">
<g id="share_forward_line">
<path id="&#229;&#189;&#162;&#231;&#138;&#182;" d="M6.74265 2.99392C6.79339 2.46383 7.34679 2.02765 7.90465 2.34554C9.06459 3.02499 10.1595 3.79867 11.218 4.62683C12.5241 5.65818 13.5735 6.63121 14.3157 7.4081C14.6383 7.74577 14.6078 8.27984 14.2997 8.6023C13.5689 9.36677 12.7821 10.078 11.9701 10.7546C10.6778 11.8124 9.34019 12.8378 7.88345 13.66C7.3891 13.9388 6.85406 13.6199 6.75855 13.1259L6.74759 13.0505L6.59592 10.6678C5.38547 10.6933 4.21325 11.1094 3.27571 11.883L3.09933 12.0313C3.07055 12.055 3.0421 12.0781 3.01396 12.1006L2.84895 12.2287C2.82208 12.2488 2.79555 12.2684 2.76933 12.2873L2.61599 12.3934C2.56619 12.4262 2.51772 12.4564 2.47059 12.4839L2.33328 12.5581C1.68933 12.8759 1.33325 12.5947 1.33325 11.3332C1.33325 8.39708 3.49672 5.78478 6.42103 5.38855L6.59392 5.36781L6.74265 2.99392ZM8.01519 3.97666L7.88752 6.29123C7.87845 6.45468 7.75212 6.58739 7.58932 6.6044L6.68172 6.69924C4.63837 6.94304 3.01747 8.54057 2.71672 10.6286C3.70989 9.89689 4.88981 9.45166 6.14018 9.35371L6.40429 9.33824L7.54059 9.31424C7.72032 9.3105 7.87065 9.44984 7.88045 9.6293L8.01172 12.0263C9.08052 11.3456 10.0993 10.5626 11.1211 9.72657C11.7809 9.17651 12.4173 8.60224 13.026 7.99624L12.8541 7.82611L12.4835 7.47045C11.901 6.92246 11.2003 6.31192 10.394 5.67507C9.61685 5.06715 8.82839 4.4966 8.01519 3.97666Z" fill="#8F929B"/>
</g>
</g>
</g>
</g>
<defs>
<clipPath id="clip0_4974_11509">
<rect width="16" height="16" fill="white"/>
</clipPath>
</defs>
</svg>
