<svg width="24" height="24" viewBox="0 0 24 24" fill="none" xmlns="http://www.w3.org/2000/svg">
<g id="sign-out-svgrepo-com 1">
<path id="Vector" d="M15 20.7484H18C18.3468 20.7632 18.693 20.7094 19.019 20.5902C19.345 20.471 19.6442 20.2887 19.8996 20.0537C20.1551 19.8187 20.3616 19.5356 20.5075 19.2207C20.6535 18.9058 20.7359 18.5652 20.75 18.2184V5.77848C20.7359 5.4317 20.6535 5.0911 20.5075 4.77619C20.3616 4.46128 20.1551 4.17823 19.8996 3.94324C19.6442 3.70825 19.345 3.52593 19.019 3.40672C18.693 3.2875 18.3468 3.23373 18 3.24848H15C14.8011 3.24848 14.6103 3.3275 14.4697 3.46815C14.329 3.60881 14.25 3.79957 14.25 3.99848C14.25 4.1974 14.329 4.38816 14.4697 4.52881C14.6103 4.66947 14.8011 4.74848 15 4.74848H18C18.2969 4.72266 18.5924 4.81213 18.8251 4.99831C19.0579 5.1845 19.21 5.45313 19.25 5.74848V18.2184C19.21 18.5138 19.0579 18.7824 18.8251 18.9686C18.5924 19.1548 18.2969 19.2443 18 19.2184H15C14.8011 19.2184 14.6103 19.2975 14.4697 19.4381C14.329 19.5788 14.25 19.7695 14.25 19.9684C14.25 20.1674 14.329 20.3581 14.4697 20.4988C14.6103 20.6394 14.8011 20.7184 15 20.7184V20.7484Z" fill="#DE2929"/>
<path id="Vector_2" d="M7.99984 16.7492C8.09834 16.7497 8.19603 16.7305 8.28703 16.6927C8.37803 16.6549 8.46063 16.5993 8.52983 16.5292C8.67023 16.3886 8.74914 16.198 8.74914 15.9992C8.74914 15.8005 8.67023 15.6098 8.52983 15.4692L5.05983 11.9992L8.52983 8.52918C8.60353 8.46052 8.66264 8.37772 8.70364 8.28572C8.74464 8.19372 8.76664 8.0944 8.76844 7.9937C8.77024 7.893 8.75163 7.79297 8.71393 7.69958C8.67623 7.60619 8.62013 7.52136 8.54883 7.45014C8.47763 7.37892 8.39283 7.32278 8.29943 7.28506C8.20603 7.24734 8.10603 7.22881 8.00533 7.23059C7.90463 7.23236 7.80533 7.25441 7.71333 7.2954C7.62133 7.33639 7.53853 7.39549 7.46983 7.46918L3.46983 11.4692C3.32933 11.6098 3.25054 11.8005 3.25054 11.9992C3.25054 12.198 3.32933 12.3886 3.46983 12.5292L7.46983 16.5292C7.53903 16.5993 7.62163 16.6549 7.71263 16.6927C7.80363 16.7305 7.90134 16.7497 7.99984 16.7492Z" fill="#DE2929"/>
<path id="Vector_3" d="M4 12.75H15C15.1989 12.75 15.3897 12.671 15.5303 12.5303C15.671 12.3897 15.75 12.1989 15.75 12C15.75 11.8011 15.671 11.6103 15.5303 11.4697C15.3897 11.329 15.1989 11.25 15 11.25H4C3.8011 11.25 3.6103 11.329 3.4697 11.4697C3.329 11.6103 3.25 11.8011 3.25 12C3.25 12.1989 3.329 12.3897 3.4697 12.5303C3.6103 12.671 3.8011 12.75 4 12.75Z" fill="#DE2929"/>
</g>
</svg>
