<svg xmlns="http://www.w3.org/2000/svg" width="24" height="24" viewBox="0 0 24 24" fill="none">
  <g clip-path="url(#clip0_2613_53072)">
    <path d="M12.6481 3.1225L12.6482 3.12252L15.4432 7.92125L15.5541 8.11164L15.7694 8.15828L21.197 9.3336C21.7588 9.45525 21.9805 10.1377 21.5976 10.5663C21.5976 10.5663 21.5976 10.5663 21.5976 10.5663L17.8974 14.7074L17.7506 14.8717L17.7728 15.0909L18.3322 20.616C18.3901 21.1879 17.8096 21.6097 17.2835 21.3779L12.2017 19.1385L12.0001 19.0497L11.7985 19.1385L6.71666 21.3779C6.19067 21.6097 5.61013 21.1879 5.66804 20.616L5.17058 20.5657L5.66804 20.616L6.22745 15.0909L6.24964 14.8717L6.10284 14.7074L2.40269 10.5663C2.01969 10.1377 2.24144 9.45525 2.80322 9.3336L8.23078 8.15828L8.44612 8.11164L8.55702 7.92125L11.352 3.12253C11.6413 2.62579 12.3589 2.62587 12.6481 3.1225Z" stroke="#617880" fill="white"/>
  </g>
  <defs>
    <clipPath id="clip0_2613_53072">
      <rect width="24" height="24" fill="white"/>
    </clipPath>
  </defs>
</svg>