<svg width="97" height="21" viewBox="0 0 97 21" fill="none" xmlns="http://www.w3.org/2000/svg">
<path d="M1.184 5.088C1.03467 4.85333 0.896 4.53333 0.768 4.128C0.64 3.72267 0.576 3.296 0.576 2.848C0.576 2.016 0.757333 1.41867 1.12 1.056C1.504 0.693333 1.99467 0.511999 2.592 0.511999H16.544C16.6933 0.746665 16.832 1.06667 16.96 1.472C17.088 1.87733 17.152 2.304 17.152 2.752C17.152 3.584 16.96 4.18133 16.576 4.544C16.2133 4.90667 15.7333 5.088 15.136 5.088H11.584V19.872C11.3493 19.936 10.976 20 10.464 20.064C9.97333 20.128 9.48267 20.16 8.992 20.16C8.50133 20.16 8.064 20.1173 7.68 20.032C7.31733 19.968 7.008 19.84 6.752 19.648C6.496 19.456 6.304 19.1893 6.176 18.848C6.048 18.5067 5.984 18.0587 5.984 17.504V5.088H1.184ZM23.924 19.968C23.7107 20.032 23.3693 20.096 22.9 20.16C22.452 20.224 21.9827 20.256 21.492 20.256C21.0227 20.256 20.596 20.224 20.212 20.16C19.8493 20.096 19.54 19.968 19.284 19.776C19.028 19.584 18.8253 19.328 18.676 19.008C18.548 18.6667 18.484 18.2293 18.484 17.696V8.096C18.484 7.60533 18.5693 7.18933 18.74 6.848C18.932 6.48533 19.1987 6.16533 19.54 5.888C19.8813 5.61067 20.2973 5.36533 20.788 5.152C21.3 4.91733 21.844 4.71467 22.42 4.544C22.996 4.37333 23.5933 4.24533 24.212 4.16C24.8307 4.05333 25.4493 4 26.068 4C27.092 4 27.9027 4.20267 28.5 4.608C29.0973 4.992 29.396 5.632 29.396 6.528C29.396 6.82667 29.3533 7.12533 29.268 7.424C29.1827 7.70133 29.076 7.95733 28.948 8.192C28.5 8.192 28.0413 8.21333 27.572 8.256C27.1027 8.29867 26.644 8.36267 26.196 8.448C25.748 8.53333 25.3213 8.62933 24.916 8.736C24.532 8.82133 24.2013 8.928 23.924 9.056V19.968ZM39.5905 20.512C38.3318 20.512 37.1585 20.3413 36.0705 20C35.0038 19.6373 34.0652 19.104 33.2545 18.4C32.4652 17.696 31.8358 16.8107 31.3665 15.744C30.9185 14.6773 30.6945 13.4293 30.6945 12C30.6945 10.592 30.9185 9.38667 31.3665 8.384C31.8358 7.36 32.4438 6.528 33.1905 5.888C33.9372 5.22667 34.7905 4.74667 35.7505 4.448C36.7105 4.128 37.6918 3.968 38.6945 3.968C39.8252 3.968 40.8492 4.13867 41.7665 4.48C42.7052 4.82133 43.5052 5.29067 44.1665 5.888C44.8492 6.48533 45.3718 7.2 45.7345 8.032C46.1185 8.864 46.3105 9.77067 46.3105 10.752C46.3105 11.4773 46.1078 12.032 45.7025 12.416C45.2972 12.8 44.7318 13.0453 44.0065 13.152L36.1025 14.336C36.3372 15.04 36.8172 15.5733 37.5425 15.936C38.2678 16.2773 39.0998 16.448 40.0385 16.448C40.9132 16.448 41.7345 16.3413 42.5025 16.128C43.2918 15.8933 43.9318 15.6267 44.4225 15.328C44.7638 15.5413 45.0518 15.84 45.2865 16.224C45.5212 16.608 45.6385 17.0133 45.6385 17.44C45.6385 18.4 45.1905 19.1147 44.2945 19.584C43.6118 19.9467 42.8438 20.192 41.9905 20.32C41.1372 20.448 40.3372 20.512 39.5905 20.512ZM38.6945 7.936C38.1825 7.936 37.7345 8.02133 37.3505 8.192C36.9878 8.36267 36.6892 8.58667 36.4545 8.864C36.2198 9.12 36.0385 9.41867 35.9105 9.76C35.8038 10.08 35.7398 10.4107 35.7185 10.752L41.1905 9.856C41.1265 9.42933 40.8918 9.00267 40.4865 8.576C40.0812 8.14933 39.4838 7.936 38.6945 7.936ZM55.905 16.544C56.2677 16.544 56.6623 16.512 57.089 16.448C57.537 16.3627 57.8677 16.256 58.081 16.128V13.568L55.777 13.76C55.1797 13.8027 54.689 13.9307 54.305 14.144C53.921 14.3573 53.729 14.6773 53.729 15.104C53.729 15.5307 53.889 15.8827 54.209 16.16C54.5503 16.416 55.1157 16.544 55.905 16.544ZM55.649 3.968C56.801 3.968 57.8463 4.08533 58.785 4.32C59.745 4.55467 60.5557 4.91733 61.217 5.408C61.8997 5.87733 62.4223 6.48533 62.785 7.232C63.1477 7.95733 63.329 8.82133 63.329 9.824V16.992C63.329 17.5467 63.169 18.0053 62.849 18.368C62.5503 18.7093 62.1877 19.008 61.761 19.264C60.3743 20.096 58.4223 20.512 55.905 20.512C54.7743 20.512 53.7503 20.4053 52.833 20.192C51.937 19.9787 51.1583 19.6587 50.497 19.232C49.857 18.8053 49.3557 18.2613 48.993 17.6C48.6517 16.9387 48.481 16.1707 48.481 15.296C48.481 13.824 48.9183 12.6933 49.793 11.904C50.6677 11.1147 52.0223 10.624 53.857 10.432L58.049 9.984V9.76C58.049 9.14133 57.7717 8.704 57.217 8.448C56.6837 8.17067 55.905 8.032 54.881 8.032C54.0703 8.032 53.281 8.11733 52.513 8.288C51.745 8.45867 51.0517 8.672 50.433 8.928C50.1557 8.736 49.921 8.448 49.729 8.064C49.537 7.65867 49.441 7.24267 49.441 6.816C49.441 6.26133 49.569 5.824 49.825 5.504C50.1023 5.16267 50.5183 4.87467 51.073 4.64C51.6917 4.40533 52.417 4.23467 53.249 4.128C54.1023 4.02133 54.9023 3.968 55.649 3.968ZM72.4152 14.656C72.4152 15.2107 72.5859 15.6053 72.9272 15.84C73.2899 16.0747 73.7912 16.192 74.4312 16.192C74.7512 16.192 75.0819 16.1707 75.4232 16.128C75.7646 16.064 76.0632 15.9893 76.3192 15.904C76.5112 16.1387 76.6712 16.4053 76.7992 16.704C76.9486 16.9813 77.0232 17.3227 77.0232 17.728C77.0232 18.5387 76.7139 19.2 76.0952 19.712C75.4979 20.224 74.4312 20.48 72.8952 20.48C71.0179 20.48 69.5672 20.0533 68.5432 19.2C67.5406 18.3467 67.0392 16.96 67.0392 15.04V1.344C67.2739 1.28 67.6046 1.216 68.0312 1.152C68.4792 1.06667 68.9486 1.024 69.4392 1.024C70.3779 1.024 71.1032 1.19467 71.6152 1.536C72.1486 1.856 72.4152 2.54933 72.4152 3.616V5.664H76.6072C76.7352 5.89867 76.8526 6.19733 76.9592 6.56C77.0872 6.90133 77.1512 7.28533 77.1512 7.712C77.1512 8.45867 76.9806 9.00267 76.6392 9.344C76.3192 9.664 75.8819 9.824 75.3272 9.824H72.4152V14.656ZM96.0162 12.224C96.0162 13.5467 95.8136 14.7307 95.4082 15.776C95.0029 16.8 94.4269 17.664 93.6802 18.368C92.9549 19.072 92.0802 19.6053 91.0562 19.968C90.0322 20.3307 88.8909 20.512 87.6322 20.512C86.3736 20.512 85.2322 20.32 84.2082 19.936C83.1842 19.552 82.2989 19.008 81.5522 18.304C80.8269 17.5787 80.2616 16.704 79.8562 15.68C79.4509 14.656 79.2482 13.504 79.2482 12.224C79.2482 10.9653 79.4509 9.824 79.8562 8.8C80.2616 7.776 80.8269 6.912 81.5522 6.208C82.2989 5.48267 83.1842 4.928 84.2082 4.544C85.2322 4.16 86.3736 3.968 87.6322 3.968C88.8909 3.968 90.0322 4.17067 91.0562 4.576C92.0802 4.96 92.9549 5.51467 93.6802 6.24C94.4269 6.944 95.0029 7.808 95.4082 8.832C95.8136 9.856 96.0162 10.9867 96.0162 12.224ZM84.8162 12.224C84.8162 13.5253 85.0616 14.528 85.5522 15.232C86.0642 15.9147 86.7682 16.256 87.6642 16.256C88.5602 16.256 89.2429 15.904 89.7122 15.2C90.2029 14.496 90.4482 13.504 90.4482 12.224C90.4482 10.944 90.2029 9.96267 89.7122 9.28C89.2216 8.576 88.5282 8.224 87.6322 8.224C86.7362 8.224 86.0429 8.576 85.5522 9.28C85.0616 9.96267 84.8162 10.944 84.8162 12.224Z" fill="white"/>
</svg>
