<svg width="108" height="27" viewBox="0 0 108 27" fill="none" xmlns="http://www.w3.org/2000/svg">
<path d="M8.672 5.048H0.968V0.295998H22.028V5.048H14.324V26H8.672V5.048ZM21.1471 7.388H26.0071V10.844H26.0791C26.3191 10.268 26.6431 9.74 27.0511 9.26C27.4591 8.756 27.9271 8.336 28.4551 8C28.9831 7.64 29.5471 7.364 30.1471 7.172C30.7471 6.98 31.3711 6.884 32.0191 6.884C32.3551 6.884 32.7271 6.944 33.1351 7.064V11.816C32.8951 11.768 32.6071 11.732 32.2711 11.708C31.9351 11.66 31.6111 11.636 31.2991 11.636C30.3631 11.636 29.5711 11.792 28.9231 12.104C28.2751 12.416 27.7471 12.848 27.3391 13.4C26.9551 13.928 26.6791 14.552 26.5111 15.272C26.3431 15.992 26.2591 16.772 26.2591 17.612V26H21.1471V7.388ZM47.0345 14.696C46.7945 13.4 46.3625 12.416 45.7385 11.744C45.1385 11.072 44.2145 10.736 42.9665 10.736C42.1505 10.736 41.4665 10.88 40.9145 11.168C40.3865 11.432 39.9545 11.768 39.6185 12.176C39.3065 12.584 39.0785 13.016 38.9345 13.472C38.8145 13.928 38.7425 14.336 38.7185 14.696H47.0345ZM38.7185 17.936C38.7905 19.592 39.2105 20.792 39.9785 21.536C40.7465 22.28 41.8505 22.652 43.2905 22.652C44.3225 22.652 45.2105 22.4 45.9545 21.896C46.6985 21.368 47.1545 20.816 47.3225 20.24H51.8225C51.1025 22.472 49.9985 24.068 48.5105 25.028C47.0225 25.988 45.2225 26.468 43.1105 26.468C41.6465 26.468 40.3265 26.24 39.1505 25.784C37.9745 25.304 36.9785 24.632 36.1625 23.768C35.3465 22.904 34.7105 21.872 34.2545 20.672C33.8225 19.472 33.6065 18.152 33.6065 16.712C33.6065 15.32 33.8345 14.024 34.2905 12.824C34.7465 11.624 35.3945 10.592 36.2345 9.728C37.0745 8.84 38.0705 8.144 39.2225 7.64C40.3985 7.136 41.6945 6.884 43.1105 6.884C44.6945 6.884 46.0745 7.196 47.2505 7.82C48.4265 8.42 49.3865 9.236 50.1305 10.268C50.8985 11.3 51.4505 12.476 51.7865 13.796C52.1225 15.116 52.2425 16.496 52.1465 17.936H38.7185ZM54.9624 13.112C55.0344 11.912 55.3344 10.916 55.8624 10.124C56.3904 9.332 57.0624 8.696 57.8784 8.216C58.6944 7.736 59.6064 7.4 60.6144 7.208C61.6464 6.992 62.6784 6.884 63.7104 6.884C64.6464 6.884 65.5944 6.956 66.5544 7.1C67.5144 7.22 68.3904 7.472 69.1824 7.856C69.9744 8.24 70.6224 8.78 71.1264 9.476C71.6304 10.148 71.8824 11.048 71.8824 12.176V21.86C71.8824 22.7 71.9304 23.504 72.0264 24.272C72.1224 25.04 72.2904 25.616 72.5304 26H67.3464C67.2504 25.712 67.1664 25.424 67.0944 25.136C67.0464 24.824 67.0104 24.512 66.9864 24.2C66.1704 25.04 65.2104 25.628 64.1064 25.964C63.0024 26.3 61.8744 26.468 60.7224 26.468C59.8344 26.468 59.0064 26.36 58.2384 26.144C57.4704 25.928 56.7984 25.592 56.2224 25.136C55.6464 24.68 55.1904 24.104 54.8544 23.408C54.5424 22.712 54.3864 21.884 54.3864 20.924C54.3864 19.868 54.5664 19.004 54.9264 18.332C55.3104 17.636 55.7904 17.084 56.3664 16.676C56.9664 16.268 57.6384 15.968 58.3824 15.776C59.1504 15.56 59.9184 15.392 60.6864 15.272C61.4544 15.152 62.2104 15.056 62.9544 14.984C63.6984 14.912 64.3584 14.804 64.9344 14.66C65.5104 14.516 65.9664 14.312 66.3024 14.048C66.6384 13.76 66.7944 13.352 66.7704 12.824C66.7704 12.272 66.6744 11.84 66.4824 11.528C66.3144 11.192 66.0744 10.94 65.7624 10.772C65.4744 10.58 65.1264 10.46 64.7184 10.412C64.3344 10.34 63.9144 10.304 63.4584 10.304C62.4504 10.304 61.6584 10.52 61.0824 10.952C60.5064 11.384 60.1704 12.104 60.0744 13.112H54.9624ZM66.7704 16.892C66.5544 17.084 66.2784 17.24 65.9424 17.36C65.6304 17.456 65.2824 17.54 64.8984 17.612C64.5384 17.684 64.1544 17.744 63.7464 17.792C63.3384 17.84 62.9304 17.9 62.5224 17.972C62.1384 18.044 61.7544 18.14 61.3704 18.26C61.0104 18.38 60.6864 18.548 60.3984 18.764C60.1344 18.956 59.9184 19.208 59.7504 19.52C59.5824 19.832 59.4984 20.228 59.4984 20.708C59.4984 21.164 59.5824 21.548 59.7504 21.86C59.9184 22.172 60.1464 22.424 60.4344 22.616C60.7224 22.784 61.0584 22.904 61.4424 22.976C61.8264 23.048 62.2224 23.084 62.6304 23.084C63.6384 23.084 64.4184 22.916 64.9704 22.58C65.5224 22.244 65.9304 21.848 66.1944 21.392C66.4584 20.912 66.6144 20.432 66.6624 19.952C66.7344 19.472 66.7704 19.088 66.7704 18.8V16.892ZM82.3303 7.388H86.0743V10.808H82.3303V20.024C82.3303 20.888 82.4743 21.464 82.7623 21.752C83.0503 22.04 83.6263 22.184 84.4902 22.184C84.7783 22.184 85.0543 22.172 85.3183 22.148C85.5823 22.124 85.8343 22.088 86.0743 22.04V26C85.6423 26.072 85.1623 26.12 84.6343 26.144C84.1063 26.168 83.5903 26.18 83.0863 26.18C82.2943 26.18 81.5383 26.12 80.8183 26C80.1223 25.904 79.4983 25.7 78.9463 25.388C78.4183 25.076 77.9983 24.632 77.6863 24.056C77.3743 23.48 77.2183 22.724 77.2183 21.788V10.808H74.1223V7.388H77.2183V1.808H82.3303V7.388ZM93.0425 16.712C93.0425 17.456 93.1145 18.188 93.2585 18.908C93.4025 19.604 93.6425 20.24 93.9785 20.816C94.3385 21.368 94.8065 21.812 95.3825 22.148C95.9585 22.484 96.6785 22.652 97.5425 22.652C98.4065 22.652 99.1265 22.484 99.7025 22.148C100.303 21.812 100.771 21.368 101.107 20.816C101.467 20.24 101.719 19.604 101.863 18.908C102.007 18.188 102.079 17.456 102.079 16.712C102.079 15.968 102.007 15.236 101.863 14.516C101.719 13.796 101.467 13.16 101.107 12.608C100.771 12.056 100.303 11.612 99.7025 11.276C99.1265 10.916 98.4065 10.736 97.5425 10.736C96.6785 10.736 95.9585 10.916 95.3825 11.276C94.8065 11.612 94.3385 12.056 93.9785 12.608C93.6425 13.16 93.4025 13.796 93.2585 14.516C93.1145 15.236 93.0425 15.968 93.0425 16.712ZM87.9305 16.712C87.9305 15.224 88.1585 13.88 88.6145 12.68C89.0705 11.456 89.7185 10.424 90.5585 9.584C91.3985 8.72 92.4065 8.06 93.5825 7.604C94.7585 7.124 96.0785 6.884 97.5425 6.884C99.0065 6.884 100.327 7.124 101.503 7.604C102.703 8.06 103.723 8.72 104.562 9.584C105.403 10.424 106.051 11.456 106.507 12.68C106.963 13.88 107.191 15.224 107.191 16.712C107.191 18.2 106.963 19.544 106.507 20.744C106.051 21.944 105.403 22.976 104.562 23.84C103.723 24.68 102.703 25.328 101.503 25.784C100.327 26.24 99.0065 26.468 97.5425 26.468C96.0785 26.468 94.7585 26.24 93.5825 25.784C92.4065 25.328 91.3985 24.68 90.5585 23.84C89.7185 22.976 89.0705 21.944 88.6145 20.744C88.1585 19.544 87.9305 18.2 87.9305 16.712Z" fill="black"/>
</svg>
