<svg width="24" height="24" viewBox="0 0 24 24" fill="none" xmlns="http://www.w3.org/2000/svg">
<g clip-path="url(#clip0_2333_1158)">
<path d="M4.59375 4.9833C4.9629 4.94027 5.32546 5.1055 5.53516 5.41233C7.01054 7.57114 8.78262 8.4692 10.7489 8.67352C10.8454 7.83233 11.0724 7.00118 11.4991 6.26942C12.125 5.19577 13.143 4.40533 14.5972 4.11325C16.6066 3.70965 18.1366 4.43735 19.0244 5.32856L20.8162 4.9936C21.199 4.92206 21.5884 5.07916 21.8144 5.39624C22.0403 5.71332 22.0617 6.13272 21.8691 6.47113L20.1496 9.49321C20.3064 13.8546 19.0944 16.8983 16.5103 18.9953C15.1395 20.1076 13.178 20.7385 11.0249 20.9333C8.85497 21.1296 6.40214 20.8922 3.96382 20.1802C3.53604 20.0553 3.24254 19.6624 3.24412 19.2168C3.24569 18.7711 3.54195 18.3803 3.9706 18.2584C5.19682 17.9097 6.13012 17.6082 6.97377 17.0817C5.77531 16.4454 4.89225 15.6136 4.26726 14.6653C3.39859 13.3472 3.07648 11.8778 3.01253 10.5525C2.94859 9.22735 3.14009 7.99999 3.34178 7.11416C3.45659 6.6099 3.59069 6.10329 3.77553 5.61934C3.90978 5.27054 4.22461 5.02634 4.59375 4.9833Z" fill="white"/>
</g>
<defs>
<clipPath id="clip0_2333_1158">
<rect width="24" height="24" fill="white"/>
</clipPath>
</defs>
</svg>
