<svg width="48" height="48" viewBox="0 0 48 48" fill="none" xmlns="http://www.w3.org/2000/svg">
<g id="Frame" clip-path="url(#clip0_4984_4129)">
<g id="&#233;&#161;&#181;&#233;&#157;&#162;-1">
<g id="Brand">
<g id="twitter_fill">
<path id="&#232;&#183;&#175;&#229;&#190;&#132;" d="M9.18751 9.96758C9.92581 9.88152 10.6509 10.212 11.0703 10.8256C14.0211 15.1433 17.5652 16.9394 21.4978 17.348C21.6908 15.6656 22.1448 14.0033 22.9982 12.5398C24.25 10.3925 26.286 8.81164 29.1944 8.22748C33.2132 7.42028 36.2732 8.87568 38.0488 10.6581L41.6324 9.98818C42.398 9.8451 43.1768 10.1593 43.6288 10.7935C44.0806 11.4276 44.1234 12.2664 43.7382 12.9432L40.2992 18.9874C40.6128 27.7102 38.1888 33.7976 33.0206 37.9916C30.279 40.2162 26.356 41.478 22.0498 41.8676C17.7099 42.2602 12.8043 41.7854 7.92765 40.3614C7.07209 40.1116 6.48509 39.3258 6.48825 38.4346C6.49139 37.5432 7.08391 36.7616 7.94121 36.5178C10.3936 35.8204 12.2602 35.2174 13.9475 34.1644C11.5506 32.8918 9.78451 31.2282 8.53453 29.3316C6.79719 26.6954 6.15297 23.7566 6.02507 21.106C5.89719 18.4557 6.28019 16.001 6.68357 14.2293C6.91319 13.2208 7.18139 12.2076 7.55107 11.2397C7.81957 10.5421 8.44923 10.0537 9.18751 9.96758Z" fill="#08080B"/>
</g>
</g>
</g>
</g>
<defs>
<clipPath id="clip0_4984_4129">
<rect width="48" height="48" fill="white"/>
</clipPath>
</defs>
</svg>
