<svg width="49" height="48" viewBox="0 0 49 48" fill="none" xmlns="http://www.w3.org/2000/svg">
<g id="hair-svgrepo-com 1" clip-path="url(#clip0_2380_659)">
<g id="&#233;&#161;&#181;&#233;&#157;&#162;-1">
<g id="Part">
<g id="hair_fill">
<path id="&#232;&#183;&#175;&#229;&#190;&#132;" d="M24.5 6C14.5589 6 6.5 14.0589 6.5 24V36C6.5 39.3138 9.1863 42 12.5 42H15.2639C16.779 42 18.1641 41.144 18.8416 39.7888L19.1913 39.0896C18.5626 38.6508 17.9535 38.1418 17.3842 37.5684C15.1867 35.3556 13.5 32.1092 13.5 28C13.5 26.53 13.7482 25.0672 14.1977 23.6852C14.3971 23.072 14.9517 23 15.5 23C18.8813 23 21.8708 21.3228 23.6824 18.7504C23.8696 18.4844 24.1746 18.3262 24.5 18.3262C24.8252 18.3262 25.1302 18.4844 25.3176 18.7504C27.129 21.3228 30.1186 23 33.5 23C34.0484 23 34.603 23.072 34.8024 23.6852C35.2518 25.0674 35.5 26.53 35.5 28C35.5 32.1092 33.8134 35.3556 31.6158 37.5684C31.0464 38.1418 30.4374 38.6508 29.8088 39.0896L30.1584 39.7888C30.836 41.144 32.221 42 33.736 42H36.5C39.8138 42 42.5 39.3138 42.5 36V24C42.5 14.0589 34.4412 6 24.5 6Z" fill="#09244B"/>
</g>
</g>
</g>
</g>
<defs>
<clipPath id="clip0_2380_659">
<rect width="48" height="48" fill="white" transform="translate(0.5)"/>
</clipPath>
</defs>
</svg>
