<svg width="59" height="48" viewBox="0 0 59 48" fill="none" xmlns="http://www.w3.org/2000/svg">
<g clip-path="url(#clip0_2380_676)">
<path d="M35.2301 9.60661C35.556 7.19353 33.6878 4.48113 30.6212 3.17954C27.5747 1.8863 24.3482 2.41107 22.8262 4.29166C22.1154 5.16979 22.2027 14.7787 22.2027 14.7787L24.543 17.4989L28.1554 17.2219C28.1554 17.2219 35.0778 10.7339 35.2301 9.60661Z" fill="#FF738E"/>
<path d="M30.1914 9.70635C29.8056 9.47564 29.3051 9.5996 29.0733 9.98541L25.0004 16.7677L24.7514 16.6622L26.8009 9.02098C26.9175 8.58626 26.6591 8.14004 26.2249 8.02281C25.7902 7.90623 25.3434 8.16413 25.2268 8.59879L22.9938 16.9243L26.0327 18.2141L30.4705 10.8245C30.7022 10.4387 30.5772 9.93804 30.1914 9.70635Z" fill="#FD3B6D"/>
<path d="M28.156 17.2219L22.2334 14.7079L19.3001 22.2454L24.7717 24.5679L28.156 17.2219Z" fill="#3D7A94"/>
<path d="M19.2997 22.2453L12.0655 40.8345C11.6072 42.0123 12.1841 43.3801 13.3475 43.874C14.5109 44.3678 15.8956 43.8327 16.4246 42.6848L24.7713 24.5677L19.2997 22.2453Z" fill="#0E4675"/>
<path d="M24.4532 25.3181L18.9816 22.9955C18.5674 22.8197 18.3741 22.3413 18.55 21.927C18.7258 21.5128 19.2042 21.3195 19.6184 21.4954L25.0899 23.8179C25.5042 23.9937 25.6975 24.4721 25.5216 24.8864C25.3458 25.3006 24.8674 25.4939 24.4532 25.3181Z" fill="#6BADB4"/>
</g>
<g clip-path="url(#clip1_2380_676)">
<path d="M36.716 33.2088C35.7502 32.243 35.0017 31.2133 34.5554 30.2585L24.7022 40.9438C23.6496 42.0919 23.6271 43.8836 24.7022 45.0494C25.836 46.2788 27.7517 46.3565 28.9813 45.2228L39.6665 35.3695C38.7118 34.9232 37.6819 34.1747 36.716 33.2088Z" fill="#BA82AA"/>
<path d="M36.8682 27.7511C37.0584 27.9516 37.1998 28.2032 37.2646 28.4925C37.3741 28.9817 37.9497 29.966 38.9545 30.9708C39.9593 31.9757 40.9436 32.5512 41.4329 32.6609C41.7222 32.7256 41.9739 32.8671 42.1743 33.0575L47.9364 27.7442C48.0142 27.672 48.0964 27.5904 48.1695 27.511C49.6943 25.8575 49.5899 23.2809 47.9364 21.7561C46.2829 20.2314 43.7063 20.3358 42.1815 21.9893L36.8682 27.7511Z" fill="#FFA6BB"/>
<path opacity="0.1" d="M26.9978 43.2395L44.4765 24.2849C45.6499 23.0124 47.4457 22.6585 48.9649 23.2572C48.7469 22.7026 48.4034 22.1873 47.9358 21.7561C46.2823 20.2314 43.7058 20.3358 42.181 21.9893L24.7022 40.9439C23.6496 42.092 23.6271 43.8837 24.7022 45.0495C25.1376 45.5216 25.6885 45.8233 26.2713 45.9523C26.0639 45.0089 26.312 43.9876 26.9978 43.2395Z" fill="black"/>
<path d="M36.7159 33.2089C35.3735 31.8666 34.4474 30.3996 34.1753 29.1843C33.9843 28.3314 34.5209 27.4852 35.3737 27.2942C36.2266 27.1032 37.0729 27.6397 37.2638 28.4926C37.3733 28.9819 37.9489 29.9662 38.9538 30.9709C39.9587 31.9758 40.9428 32.5513 41.4321 32.661C42.285 32.8519 42.8216 33.6984 42.6305 34.5511C42.4396 35.4039 41.5933 35.9405 40.7405 35.7495C39.5252 35.4773 38.0583 34.5513 36.7159 33.2089Z" fill="#FFD782"/>
<g opacity="0.1">
<path d="M35.3231 30.3319C35.1321 29.4789 35.6686 28.6327 36.5215 28.4418C36.7714 28.3858 37.0203 28.3938 37.2527 28.4524C37.0444 27.6232 36.2129 27.1059 35.3737 27.2939C34.5209 27.4849 33.9843 28.3311 34.1753 29.184C34.4475 30.3994 35.3735 31.8664 36.7158 33.2086C36.9106 33.4035 37.1083 33.5884 37.3073 33.765C36.2673 32.5934 35.5557 31.3708 35.3231 30.3319Z" fill="black"/>
</g>
<path d="M56.2314 16.7594L53.1658 13.6938C50.8748 11.4029 47.0959 11.6317 45.0981 14.1825L42.7926 17.1264C40.5705 19.9636 40.8159 24.013 43.3641 26.5612C45.9123 29.1094 49.9618 29.3547 52.7989 27.1328L55.7428 24.8272C58.2936 22.8294 58.5225 19.0505 56.2314 16.7594Z" fill="#464655"/>
<path opacity="0.1" d="M43.9404 18.2743L46.2459 15.3304C48.2437 12.7796 52.0227 12.5506 54.3137 14.8417L53.1659 13.6939C50.8748 11.4028 47.0958 11.6317 45.0982 14.1826L42.7926 17.1264C40.5705 19.9636 40.8158 24.013 43.364 26.5612C43.558 26.7552 43.7616 26.934 43.9717 27.1013C41.9422 24.5505 41.8875 20.8956 43.9404 18.2743Z" fill="black"/>
<path d="M50.1412 19.7839C49.9035 19.5462 49.9035 19.1607 50.1412 18.923L54.2679 14.7962C54.5056 14.5585 54.891 14.5585 55.1288 14.7962C55.3665 15.0339 55.3665 15.4193 55.1288 15.6571L51.0021 19.7839C50.7642 20.0216 50.3789 20.0216 50.1412 19.7839Z" fill="#353540"/>
<path d="M47.045 17.5834C46.8491 17.3875 46.8067 17.0756 46.9598 16.8306L50.0281 11.9228C50.2064 11.6377 50.5819 11.5512 50.867 11.7294C51.1519 11.9075 51.2387 12.2831 51.0605 12.5682L47.9921 17.476C47.8139 17.7611 47.4384 17.8476 47.1532 17.6694C47.1132 17.6443 47.0771 17.6154 47.045 17.5834Z" fill="#353540"/>
<path d="M52.3418 22.8799C52.3098 22.8478 52.2808 22.8117 52.2558 22.7716C52.0775 22.4866 52.1641 22.111 52.4492 21.9327L57.357 18.8644C57.6421 18.6861 58.0176 18.7728 58.1958 19.0579C58.3741 19.3429 58.2874 19.7185 58.0024 19.8967L53.0946 22.965C52.8495 23.1182 52.5377 23.0758 52.3418 22.8799Z" fill="#353540"/>
</g>
<defs>
<clipPath id="clip0_2380_676">
<rect width="34.3881" height="34.3881" fill="white" transform="translate(0.0869141 12.8821) rotate(-22)"/>
</clipPath>
<clipPath id="clip1_2380_676">
<rect width="34.3881" height="34.3881" fill="white" transform="translate(23.9023 11.6367)"/>
</clipPath>
</defs>
</svg>
