<svg width="24" height="24" viewBox="0 0 24 24" fill="none" xmlns="http://www.w3.org/2000/svg">
<g id="link_2_fill 1" clip-path="url(#clip0_1642_6732)">
<g id="&#233;&#161;&#181;&#233;&#157;&#162;-1">
<g id="File">
<g id="link_2_fill">
<path id="&#229;&#189;&#162;&#231;&#138;&#182;" d="M15.889 9.52456C16.4382 8.9754 17.3072 8.94107 17.8964 9.4216L18.0103 9.52456L20.1317 11.6459C22.4748 13.989 22.4748 17.788 20.1317 20.1312C17.8486 22.4142 14.1834 22.4728 11.8295 20.3068L11.6464 20.1312L9.52505 18.0098C8.93927 17.424 8.93927 16.4743 9.52505 15.8885C10.0742 15.3393 10.9433 15.305 11.5325 15.7855L11.6464 15.8885L13.7677 18.0098C14.9393 19.1814 16.8388 19.1814 18.0103 18.0098C19.135 16.8852 19.18 15.0896 18.1453 13.9112L18.0103 13.7672L15.889 11.6459C15.3032 11.0601 15.3032 10.1103 15.889 9.52456ZM8.81781 8.81745C9.36699 8.26828 10.236 8.23395 10.8252 8.71448L10.9391 8.81745L15.1818 13.0601C15.7676 13.6459 15.7676 14.5956 15.1818 15.1814C14.6326 15.7306 13.7635 15.7649 13.1743 15.2844L13.0604 15.1814L8.81781 10.9388C8.23202 10.353 8.23202 9.40324 8.81781 8.81745ZM3.8682 3.86771C6.15126 1.58464 9.81644 1.5261 12.1704 3.69209L12.3535 3.86771L14.4748 5.98903C15.0606 6.57482 15.0606 7.52456 14.4748 8.11035C13.9256 8.65953 13.0566 8.69386 12.4674 8.21332L12.3535 8.11035L10.2322 5.98903C9.06059 4.81746 7.16109 4.81746 5.98952 5.98903C4.86481 7.11374 4.81983 8.90931 5.85456 10.0877L5.98952 10.2317L8.11084 12.353C8.69663 12.9388 8.69663 13.8885 8.11084 14.4743C7.56166 15.0235 6.69261 15.0578 6.10345 14.5773L5.98952 14.4743L3.8682 12.353C1.52505 10.0098 1.52505 6.21085 3.8682 3.86771Z" fill="#08080B"/>
</g>
</g>
</g>
</g>
<defs>
<clipPath id="clip0_1642_6732">
<rect width="24" height="24" fill="white"/>
</clipPath>
</defs>
</svg>
