<svg width="28" height="28" viewBox="0 0 28 28" fill="none"  xmlns="http://www.w3.org/2000/svg">
<rect width="28" height="28" fill="#E5E5E5"/>
<g id="Blog">
<path d="M-2072 -2032C-2072 -2033.1 -2071.1 -2034 -2070 -2034H15592C15593.1 -2034 15594 -2033.1 15594 -2032V6924C15594 6925.1 15593.1 6926 15592 6926H-2070C-2071.1 6926 -2072 6925.1 -2072 6924V-2032Z" fill="#F5F5F5" stroke="none"/>
<g id="Blog detail page">
<rect width="1440" height="4554" transform="translate(-716 -378)" fill="white"/>
<g id="Blog Body">
<g id="Metadata">
<g id="Share on social media">
<g id="Frame 74">
<g id="Frame" clip-path="url(#clip0_1_64)">
<g id="&#233;&#161;&#181;&#233;&#157;&#162;-1">
<g id="Brand">
<g id="facebook_fill">
<path id="&#232;&#183;&#175;&#229;&#190;&#132;" d="M15.75 25.536C21.3632 24.6916 25.6667 19.8482 25.6667 13.9997C25.6667 7.55635 20.4433 2.33301 14 2.33301C7.55671 2.33301 2.33337 7.55635 2.33337 13.9997C2.33337 19.8482 6.6369 24.6916 12.25 25.536V17.4997H10.5C9.53354 17.4997 8.75004 16.7161 8.75004 15.7497C8.75004 14.7832 9.53354 13.9997 10.5 13.9997H12.25V11.6663C12.25 9.41117 14.0782 7.58301 16.3334 7.58301H16.9167C17.8832 7.58301 18.6667 8.36651 18.6667 9.33301C18.6667 10.2995 17.8832 11.083 16.9167 11.083H16.3334C16.0113 11.083 15.75 11.3442 15.75 11.6663V13.9997H17.5C18.4665 13.9997 19.25 14.7832 19.25 15.7497C19.25 16.7161 18.4665 17.4997 17.5 17.4997H15.75V25.536Z" fill="#08080B" stroke="none"/>
</g>
</g>
</g>
</g>
</g>
</g>
</g>
</g>
</g>
<path d="M-2070 -2033H15592V-2035H-2070V-2033ZM15593 -2032V6924H15595V-2032H15593ZM15592 6925H-2070V6927H15592V6925ZM-2071 6924V-2032H-2073V6924H-2071ZM-2070 6925C-2070.55 6925 -2071 6924.55 -2071 6924H-2073C-2073 6925.66 -2071.66 6927 -2070 6927V6925ZM15593 6924C15593 6924.55 15592.6 6925 15592 6925V6927C15593.7 6927 15595 6925.66 15595 6924H15593ZM15592 -2033C15592.6 -2033 15593 -2032.55 15593 -2032H15595C15595 -2033.66 15593.7 -2035 15592 -2035V-2033ZM-2070 -2035C-2071.66 -2035 -2073 -2033.66 -2073 -2032H-2071C-2071 -2032.55 -2070.55 -2033 -2070 -2033V-2035Z" fill="black" fill-opacity="0.1"/>
</g>
<defs>
<clipPath id="clip0_1_64">
<rect width="28" height="28" fill="white"/>
</clipPath>
</defs>
</svg>


