<svg width="28" height="28" viewBox="0 0 28 28" fill="none" xmlns="http://www.w3.org/2000/svg">
<g id="Frame" clip-path="url(#clip0_1642_7210)">
<g id="&#233;&#161;&#181;&#233;&#157;&#162;-1">
<g id="Brand">
<g id="ins_fill">
<path id="&#229;&#189;&#162;&#231;&#138;&#182;" d="M18.6667 3.5C21.8883 3.5 24.5 6.11168 24.5 9.33333V18.6667C24.5 21.8883 21.8883 24.5 18.6667 24.5H9.33333C6.11168 24.5 3.5 21.8883 3.5 18.6667V9.33333C3.5 6.11168 6.11168 3.5 9.33333 3.5H18.6667ZM14 9.33333C11.4227 9.33333 9.33333 11.4227 9.33333 14C9.33333 16.5773 11.4227 18.6667 14 18.6667C16.5773 18.6667 18.6667 16.5773 18.6667 14C18.6667 11.4227 16.5773 9.33333 14 9.33333ZM14 11.6667C15.2887 11.6667 16.3333 12.7113 16.3333 14C16.3333 15.2887 15.2887 16.3333 14 16.3333C12.7113 16.3333 11.6667 15.2887 11.6667 14C11.6667 12.7113 12.7113 11.6667 14 11.6667ZM19.25 7.58333C18.6056 7.58333 18.0833 8.10567 18.0833 8.75C18.0833 9.39433 18.6056 9.91667 19.25 9.91667C19.8944 9.91667 20.4167 9.39433 20.4167 8.75C20.4167 8.10567 19.8944 7.58333 19.25 7.58333Z" fill="#08080B"/>
</g>
</g>
</g>
</g>
<defs>
<clipPath id="clip0_1642_7210">
<rect width="28" height="28" fill="white"/>
</clipPath>
</defs>
</svg>
