<svg width="28" height="28" viewBox="0 0 28 28" fill="none" xmlns="http://www.w3.org/2000/svg">
<rect width="28" height="28" fill="#E5E5E5"/>
<g id="Blog">
<path d="M-2120 -2032C-2120 -2033.1 -2119.1 -2034 -2118 -2034H15544C15545.1 -2034 15546 -2033.1 15546 -2032V6924C15546 6925.1 15545.1 6926 15544 6926H-2118C-2119.1 6926 -2120 6925.1 -2120 6924V-2032Z" fill="#F5F5F5"/>
<g id="Blog detail page">
<rect width="1440" height="4554" transform="translate(-764 -378)" fill="white"/>
<g id="Blog Body">
<g id="Metadata">
<g id="Share on social media">
<g id="Frame 74">
<g id="Frame" clip-path="url(#clip0_1_64)">
<g id="&#233;&#161;&#181;&#233;&#157;&#162;-1">
<g id="Brand">
<g id="twitter_fill">
<path id="&#232;&#183;&#175;&#229;&#190;&#132;" d="M5.35938 5.81434C5.79005 5.76414 6.21304 5.95691 6.45769 6.31488C8.17897 8.83349 10.2464 9.88123 12.5404 10.1196C12.653 9.13821 12.9178 8.16853 13.4156 7.31481C14.1458 6.06222 15.3335 5.14004 17.0301 4.79928C19.3744 4.32842 21.1594 5.1774 22.1951 6.21715L24.2856 5.82636C24.7322 5.7429 25.1865 5.92618 25.4501 6.29611C25.7137 6.66603 25.7387 7.15533 25.514 7.55014L23.5079 11.0759C23.6908 16.1642 22.2768 19.7152 19.262 22.1617C17.6628 23.4594 15.3743 24.1954 12.8624 24.4227C10.3308 24.6517 7.46917 24.3747 4.62446 23.5441C4.12538 23.3984 3.78297 22.94 3.78481 22.4201C3.78664 21.9001 4.13228 21.4442 4.63237 21.302C6.06296 20.8952 7.15181 20.5434 8.13607 19.9292C6.73787 19.1868 5.70763 18.2164 4.97847 17.11C3.96503 15.5722 3.58923 13.8579 3.51462 12.3118C3.44003 10.7657 3.66344 9.33381 3.89875 8.30034C4.03269 7.71204 4.18914 7.121 4.40479 6.55639C4.56141 6.14946 4.92872 5.86456 5.35938 5.81434Z" fill="#08080B"/>
</g>
</g>
</g>
</g>
</g>
</g>
</g>
</g>
</g>
<path d="M-2118 -2033H15544V-2035H-2118V-2033ZM15545 -2032V6924H15547V-2032H15545ZM15544 6925H-2118V6927H15544V6925ZM-2119 6924V-2032H-2121V6924H-2119ZM-2118 6925C-2118.55 6925 -2119 6924.55 -2119 6924H-2121C-2121 6925.66 -2119.66 6927 -2118 6927V6925ZM15545 6924C15545 6924.55 15544.6 6925 15544 6925V6927C15545.7 6927 15547 6925.66 15547 6924H15545ZM15544 -2033C15544.6 -2033 15545 -2032.55 15545 -2032H15547C15547 -2033.66 15545.7 -2035 15544 -2035V-2033ZM-2118 -2035C-2119.66 -2035 -2121 -2033.66 -2121 -2032H-2119C-2119 -2032.55 -2118.55 -2033 -2118 -2033V-2035Z" fill="black" fill-opacity="0.1"/>
</g>
<defs>
<clipPath id="clip0_1_64">
<rect width="28" height="28" fill="white"/>
</clipPath>
</defs>
</svg>



