<svg width="24" height="24" viewBox="0 0 24 24" fill="none" xmlns="http://www.w3.org/2000/svg">
<g id="map-pin">
<path id="Vector" d="M20 10C20 13.0981 17.9843 16.1042 15.774 18.4373C14.6894 19.5822 13.6013 20.5195 12.7833 21.1708C12.4789 21.4133 12.213 21.6152 12 21.7726C11.787 21.6152 11.5211 21.4133 11.2167 21.1708C10.3987 20.5195 9.31061 19.5822 8.22595 18.4373C6.01574 16.1042 4 13.0981 4 10C4 7.87827 4.84285 5.84344 6.34315 4.34315C7.84344 2.84285 9.87827 2 12 2C14.1217 2 16.1566 2.84285 17.6569 4.34315C19.1571 5.84344 20 7.87827 20 10Z" stroke="#08090A" stroke-width="2" stroke-linecap="round" stroke-linejoin="round"/>
<path id="Vector_2" d="M12 13C13.6569 13 15 11.6569 15 10C15 8.34315 13.6569 7 12 7C10.3431 7 9 8.34315 9 10C9 11.6569 10.3431 13 12 13Z" stroke="#08090A" stroke-width="2" stroke-linecap="round" stroke-linejoin="round"/>
</g>
</svg>
