<svg width="24" height="24" viewBox="0 0 24 24" fill="none" xmlns="http://www.w3.org/2000/svg">
<g id="sign-out-svgrepo-com 1">
<path id="Vector" d="M15 20.7523H18C18.3468 20.7671 18.693 20.7133 19.019 20.5941C19.345 20.4749 19.6442 20.2926 19.8996 20.0576C20.1551 19.8226 20.3616 19.5395 20.5075 19.2246C20.6535 18.9097 20.7359 18.5691 20.75 18.2223V5.78239C20.7359 5.43561 20.6535 5.09501 20.5075 4.7801C20.3616 4.46519 20.1551 4.18214 19.8996 3.94715C19.6442 3.71216 19.345 3.52984 19.019 3.41063C18.693 3.29141 18.3468 3.23764 18 3.25239H15C14.8011 3.25239 14.6103 3.33141 14.4697 3.47206C14.329 3.61272 14.25 3.80348 14.25 4.00239C14.25 4.20131 14.329 4.39207 14.4697 4.53272C14.6103 4.67338 14.8011 4.75239 15 4.75239H18C18.2969 4.72657 18.5924 4.81604 18.8251 5.00222C19.0579 5.18841 19.21 5.45704 19.25 5.75239V18.2223C19.21 18.5177 19.0579 18.7863 18.8251 18.9725C18.5924 19.1587 18.2969 19.2482 18 19.2223H15C14.8011 19.2223 14.6103 19.3014 14.4697 19.442C14.329 19.5827 14.25 19.7734 14.25 19.9723C14.25 20.1713 14.329 20.362 14.4697 20.5027C14.6103 20.6433 14.8011 20.7223 15 20.7223V20.7523Z" fill="#DE2929"/>
<path id="Vector_2" d="M7.99996 16.7531C8.09846 16.7536 8.19616 16.7344 8.28716 16.6966C8.37816 16.6588 8.46076 16.6032 8.52996 16.5331C8.67036 16.3925 8.74926 16.2019 8.74926 16.0031C8.74926 15.8044 8.67036 15.6137 8.52996 15.4731L5.05996 12.0031L8.52996 8.53308C8.60366 8.46442 8.66276 8.38162 8.70376 8.28962C8.74476 8.19762 8.76676 8.0983 8.76856 7.9976C8.77036 7.8969 8.75176 7.79687 8.71406 7.70348C8.67636 7.61009 8.62026 7.52526 8.54896 7.45404C8.47776 7.38282 8.39296 7.32668 8.29956 7.28896C8.20616 7.25124 8.10616 7.23271 8.00546 7.23449C7.90476 7.23626 7.80546 7.25831 7.71346 7.2993C7.62146 7.34029 7.53866 7.39939 7.46996 7.47308L3.46996 11.4731C3.32946 11.6137 3.25066 11.8044 3.25066 12.0031C3.25066 12.2019 3.32946 12.3925 3.46996 12.5331L7.46996 16.5331C7.53916 16.6032 7.62176 16.6588 7.71276 16.6966C7.80376 16.7344 7.90146 16.7536 7.99996 16.7531Z" fill="#DE2929"/>
<path id="Vector_3" d="M4 12.75H15C15.1989 12.75 15.3897 12.671 15.5303 12.5303C15.671 12.3897 15.75 12.1989 15.75 12C15.75 11.8011 15.671 11.6103 15.5303 11.4697C15.3897 11.329 15.1989 11.25 15 11.25H4C3.8011 11.25 3.6103 11.329 3.4697 11.4697C3.329 11.6103 3.25 11.8011 3.25 12C3.25 12.1989 3.329 12.3897 3.4697 12.5303C3.6103 12.671 3.8011 12.75 4 12.75Z" fill="#DE2929"/>
</g>
</svg>
