<svg width="36" height="36" viewBox="0 0 36 36" fill="none" xmlns="http://www.w3.org/2000/svg">
<path d="M13.5 0L11.25 0.5625V2.25H13.5V0ZM13.5 2.25V4.5H11.25V2.25H11.2365C8.406 2.28375 6.33375 2.1825 4.6395 3.11625C3.7935 3.582 3.12075 4.37625 2.7495 5.36175C2.3805 6.34725 2.25 7.52175 2.25 9V27C2.25 28.4805 2.3805 29.6528 2.75175 30.6382C3.12075 31.626 3.7935 32.4135 4.64175 32.8792C6.33375 33.8153 8.406 33.7163 11.2365 33.75H22.5V31.5H11.25C8.415 31.4662 6.55425 31.365 5.73075 30.9105C5.31675 30.6855 5.07825 30.4335 4.86 29.8485C4.64175 29.2635 4.5 28.332 4.5 27V15.75C4.5 14.418 4.64175 13.4865 4.86 12.9015C5.0805 12.3165 5.31675 12.0668 5.73075 11.8395C6.5565 11.3828 8.4195 11.2837 11.2635 11.25H24.75C27.585 11.2837 29.4457 11.385 30.2693 11.8395C30.6833 12.0645 30.9218 12.3165 31.14 12.9015C31.3582 13.4865 31.5 15.75 31.5 15.75V22.5H33.75V9C33.75 7.5195 33.615 6.34725 33.2437 5.36175C32.9036 4.41275 32.2358 3.61643 31.3605 3.11625C29.6663 2.18025 27.594 2.28375 24.7635 2.25H24.75V4.5H22.5V2.25H13.5ZM22.5 2.25H24.75V0L22.5 0.5625V2.25ZM29.25 24.75V29.25H24.75V31.5H29.25V36H31.5V31.5H36V29.25H31.5V24.75H29.25Z" fill="#B63B6E"/>
</svg>
