<svg width="36" height="36" viewBox="0 0 36 36" fill="none" xmlns="http://www.w3.org/2000/svg">
<path d="M29.1468 2.57133H28.919C27.8499 2.57133 26.8599 3.17286 26.2704 4.17973C26.0552 4.54747 25.4867 4.59141 25.2171 4.26516C24.3199 3.17286 23.1284 2.57133 21.8547 2.57133C20.5898 2.57133 19.3987 3.17286 18.5005 4.26516C18.2551 4.56399 17.7534 4.56469 17.5066 4.26446C16.6084 3.17286 15.4173 2.57133 14.1523 2.57133C12.8874 2.57133 11.6963 3.17286 10.7981 4.26516C10.5288 4.59423 9.96066 4.54817 9.74516 4.17973C9.15453 3.17286 8.16453 2.57133 7.09578 2.57133H6.8416C5.19313 2.57133 3.85156 3.9129 3.85156 5.56137V30.4383C3.85156 32.0868 5.19313 33.4283 6.8416 33.4283H7.09578C8.16418 33.4283 9.15418 32.8268 9.74586 31.8185C9.95926 31.4511 10.5274 31.404 10.7981 31.7349C11.6963 32.8265 12.8874 33.428 14.1523 33.428C15.4173 33.428 16.6084 32.8265 17.5066 31.7341C17.7534 31.4346 18.2551 31.4353 18.5005 31.7349C19.3987 32.8265 20.5898 33.428 21.8635 33.428C23.1284 33.428 24.3202 32.8265 25.2167 31.7356C25.4885 31.4065 26.0566 31.4543 26.27 31.8185C26.8603 32.8268 27.8503 33.4283 28.9194 33.4283H29.1472C30.7957 33.4283 32.1372 32.0868 32.1372 30.4383V5.56173C32.1372 3.9129 30.7953 2.57133 29.1468 2.57133ZM29.5655 30.4383C29.5655 30.6693 29.3778 30.857 29.1468 30.857H28.919C28.7032 30.857 28.5355 30.599 28.4891 30.5191C27.9139 29.5379 26.8504 28.9283 25.7142 28.9283C24.7498 28.9283 23.8453 29.3558 23.2307 30.1022C22.9991 30.3841 22.5132 30.8566 21.8547 30.8566C21.205 30.8566 20.7185 30.3834 20.4868 30.1022C19.262 28.6098 16.7465 28.6095 15.5203 30.1015C15.2886 30.3834 14.802 30.8566 14.1523 30.8566C13.5027 30.8566 13.0161 30.3834 12.7844 30.1022C12.1716 29.3558 11.2664 28.9283 10.3017 28.9283C9.16402 28.9283 8.10055 29.5386 7.5268 30.5191C7.48039 30.5983 7.31199 30.857 7.09613 30.857H6.84195C6.61098 30.857 6.42324 30.6693 6.42324 30.4383V5.56173C6.42324 5.33075 6.61098 5.14301 6.84195 5.14301H7.09613C7.31199 5.14301 7.48039 5.40176 7.52609 5.47946C8.10055 6.46137 9.16402 7.07169 10.3017 7.07169C11.2667 7.07169 12.172 6.64419 12.7844 5.89817C13.0161 5.61622 13.5027 5.14301 14.1523 5.14301C14.802 5.14301 15.2886 5.61622 15.5203 5.89747C16.7465 7.39091 19.262 7.38915 20.4868 5.89817C20.7185 5.61622 21.205 5.14301 21.8635 5.14301C22.5132 5.14301 22.9991 5.61587 23.2314 5.89887C23.8453 6.64419 24.7502 7.07169 25.7142 7.07169C26.8504 7.07169 27.9139 6.46208 28.4898 5.47946C28.5355 5.40106 28.7032 5.14301 28.919 5.14301H29.1468C29.3778 5.14301 29.5655 5.33075 29.5655 5.56173V30.4383Z" fill="#284E63"/>
<path d="M8.99645 19.2888H21.8534V21.8601H8.99645V19.2888ZM8.99609 24.4311H26.9898V27.0025H8.99609V24.4311ZM21.8499 11.5745H23.889L20.9411 14.5227L22.7591 16.3406L25.7073 13.3928V15.4318H28.2786V9.00316H21.8499V11.5745Z" fill="#284E63"/>
</svg>
